# 3ds Max Wavefront OBJ Exporter v0.97b - (c)2007 guruware
# File Created: 31.10.2016 13:22:43

mtllib BufferGeneric_type1.mtl

#
# object Mesh
#

v  0.1417 0.3425 -2.1923
v  0.1417 0.1560 -2.1923
v  1.5320 0.1560 2.3517
v  1.5320 0.3425 2.3517
v  0.1041 0.1560 -2.1923
v  1.4944 0.1560 2.3517
v  0.1041 0.1158 -2.1923
v  1.4944 0.1158 2.3517
v  0.2663 0.1158 -2.1923
v  1.6566 0.1158 2.3517
v  0.2663 0.1560 -2.1923
v  1.6566 0.1560 2.3517
v  0.2286 0.1560 -2.1923
v  1.6190 0.1560 2.3517
v  0.2286 0.3425 -2.1923
v  1.6190 0.3425 2.3517
v  0.2663 0.3425 -2.1923
v  1.6566 0.3425 2.3517
v  0.2663 0.3668 -2.1923
v  1.6566 0.3668 2.3517
v  0.1041 0.3668 -2.1923
v  1.4944 0.3668 2.3517
v  0.1041 0.3425 -2.1923
v  1.4944 0.3425 2.3517
v  -1.4932 0.1560 2.3517
v  -0.1029 0.1560 -2.1923
v  -0.1406 0.1560 -2.1923
v  -1.5309 0.1560 2.3517
v  -1.4932 0.1158 2.3517
v  -0.1029 0.1158 -2.1923
v  -1.6554 0.1158 2.3517
v  -0.2651 0.1158 -2.1923
v  -1.6554 0.1560 2.3517
v  -0.2651 0.1560 -2.1923
v  -1.6178 0.1560 2.3517
v  -0.2275 0.1560 -2.1923
v  -1.6178 0.3425 2.3517
v  -0.2275 0.3425 -2.1923
v  -1.6554 0.3425 2.3517
v  -0.2651 0.3425 -2.1923
v  -1.6554 0.3668 2.3517
v  -0.2651 0.3668 -2.1923
v  -1.4932 0.3668 2.3517
v  -0.1029 0.3668 -2.1923
v  -1.4932 0.3425 2.3517
v  -0.1029 0.3425 -2.1923
v  -1.5309 0.3425 2.3517
v  -0.1406 0.3425 -2.1923
v  1.7386 0.0968 -2.1373
v  1.7386 0.0968 -2.1923
v  -1.7387 0.0968 -2.1923
v  -1.7387 0.0968 -2.1373
v  -1.7387 0.0353 -2.1373
v  1.7386 0.0353 -2.1373
v  -1.7387 0.3818 -2.1373
v  1.7386 0.3818 -2.1373
v  1.7386 0.4188 -2.1373
v  -1.7387 0.4188 -2.1373
v  -1.7387 0.3818 -2.1923
v  1.7386 0.3818 -2.1923
v  1.7386 0.0353 -2.3743
v  -1.7387 0.0353 -2.3743
v  -1.7387 0.0968 -2.3743
v  1.7386 0.0968 -2.3743
v  1.7386 0.0968 -2.3192
v  -1.7387 0.0968 -2.3192
v  -1.7387 0.3818 -2.3192
v  1.7386 0.3818 -2.3192
v  -1.7387 0.3818 -2.3743
v  1.7386 0.3818 -2.3743
v  -1.7387 0.4188 -2.3743
v  1.7386 0.4188 -2.3743
v  -3.3636 2.9879 -2.7082
v  -3.3636 1.5849 -2.7082
v  -3.3638 1.5849 -2.3682
v  -3.3638 2.9879 -2.3682
v  3.3638 2.9879 -2.7082
v  3.3638 1.5849 -2.7082
v  3.3636 2.9879 -2.3682
v  3.3636 1.5849 -2.3682
v  2.3561 2.1529 -0.5021
v  2.3561 2.8731 -1.6099
v  1.7036 2.8731 -1.6099
v  1.7036 2.1529 -0.5021
v  2.3561 1.3339 -1.5833
v  2.3561 1.3340 -1.9872
v  1.7036 1.3339 -1.5833
v  1.7036 1.3340 -1.9872
v  1.7036 2.8725 -2.3680
v  1.7036 1.7003 -2.3684
v  2.3561 1.7003 -2.3684
v  2.3561 2.8725 -2.3680
v  -1.7037 2.1529 -0.5021
v  -1.7037 2.8731 -1.6099
v  -2.3562 2.8731 -1.6099
v  -2.3562 2.1529 -0.5021
v  -1.7037 1.3339 -1.5833
v  -1.7037 1.3340 -1.9872
v  -2.3562 1.3339 -1.5833
v  -2.3562 1.3340 -1.9872
v  -2.3562 2.8725 -2.3680
v  -2.3562 1.7003 -2.3684
v  -1.7037 1.7003 -2.3684
v  -1.7037 2.8725 -2.3680
v  -1.8387 1.1001 0.9360
v  -1.8387 2.0905 -0.5844
v  -1.8387 2.1328 -0.5286
v  -1.8387 1.1000 1.0567
v  -1.8887 1.1001 0.9360
v  -1.8887 2.0905 -0.5844
v  -1.8887 1.1001 0.7071
v  -1.8887 0.7388 0.4654
v  -1.8887 1.7315 -1.0584
v  -1.8387 0.7388 0.4654
v  -1.8387 1.7315 -1.0584
v  -1.8387 0.6841 0.4288
v  -1.8387 1.6892 -1.1141
v  -2.2344 0.6841 0.4288
v  -2.2344 1.6892 -1.1141
v  -2.2344 0.7388 0.4654
v  -2.2344 1.7315 -1.0584
v  -2.1844 0.7388 0.4654
v  -2.1844 1.7315 -1.0584
v  -2.1844 1.1001 0.7071
v  -2.1844 2.0905 -0.5844
v  -2.1844 1.1000 0.9360
v  -2.2344 1.1000 0.9360
v  -2.2344 2.0905 -0.5844
v  -2.2344 1.1000 1.0567
v  -2.2344 2.1328 -0.5286
v  -2.2958 0.2601 0.8285
v  -1.7642 0.2601 0.8285
v  -1.7642 0.2601 -1.6234
v  -2.2958 0.2601 -1.6234
v  -1.7642 0.0000 1.1428
v  -1.7642 0.0001 -1.5976
v  -2.2958 0.0000 1.1428
v  -2.2958 0.0001 -1.5976
v  -1.7442 0.3156 2.9532
v  -2.3158 0.3156 2.9532
v  -2.3158 -0.0000 2.9532
v  -1.7442 -0.0000 2.9532
v  -1.7442 1.1000 1.1428
v  -2.3158 1.1000 1.1428
v  -1.7442 1.1001 0.7071
v  -2.3158 1.1001 0.7071
v  -1.7442 0.6239 0.3886
v  -2.3158 0.6239 0.3886
v  -1.7442 0.0000 1.1428
v  -2.3158 0.0000 1.1428
v  2.3157 0.3156 2.9532
v  1.7441 0.3156 2.9532
v  1.7441 -0.0000 2.9532
v  2.3157 -0.0000 2.9532
v  2.3157 1.1000 1.1428
v  1.7441 1.1000 1.1428
v  2.3157 1.1001 0.7071
v  1.7441 1.1001 0.7071
v  2.3157 0.6239 0.3886
v  1.7441 0.6239 0.3886
v  2.3157 0.0000 1.1428
v  1.7441 0.0000 1.1428
v  2.2212 1.1001 0.9360
v  2.2212 2.0905 -0.5844
v  2.2212 2.1328 -0.5286
v  2.2212 1.1000 1.0567
v  2.1712 1.1001 0.9360
v  2.1712 2.0905 -0.5844
v  2.1712 1.1001 0.7071
v  2.1712 0.7388 0.4654
v  2.1712 1.7315 -1.0584
v  2.2212 0.7388 0.4654
v  2.2212 1.7315 -1.0584
v  2.2212 0.6841 0.4288
v  2.2212 1.6892 -1.1141
v  1.8255 0.6841 0.4288
v  1.8255 1.6892 -1.1141
v  1.8255 0.7388 0.4654
v  1.8255 1.7315 -1.0584
v  1.8755 0.7388 0.4654
v  1.8755 1.7315 -1.0584
v  1.8755 1.1001 0.7071
v  1.8755 2.0905 -0.5844
v  1.8755 1.1000 0.9360
v  1.8255 1.1000 0.9360
v  1.8255 2.0905 -0.5844
v  1.8255 1.1000 1.0567
v  1.8255 2.1328 -0.5286
v  1.7641 0.2601 0.8285
v  2.2957 0.2601 0.8285
v  2.2957 0.2601 -1.6234
v  1.7641 0.2601 -1.6234
v  2.2957 0.0000 1.1428
v  2.2957 0.0001 -1.5976
v  1.7641 0.0000 1.1428
v  1.7641 0.0001 -1.5976
v  -1.7387 0.3818 2.3517
v  1.7386 0.3818 2.3517
v  1.7386 0.0968 2.3517
v  -1.7387 0.0968 2.3517
v  -1.7387 0.3818 2.2967
v  1.7386 0.3818 2.2967
v  -1.7387 0.3818 2.5337
v  1.7386 0.3818 2.5337
v  1.7386 0.4188 2.5337
v  -1.7387 0.4188 2.5337
v  -1.7387 0.3818 2.4787
v  1.7386 0.3818 2.4787
v  -1.7387 0.0968 2.4787
v  1.7386 0.0968 2.4787
v  -1.7387 0.0968 2.5337
v  1.7386 0.0968 2.5337
v  1.7386 0.0968 2.2967
v  -1.7387 0.0968 2.2967
v  -1.7387 0.0353 2.5337
v  1.7386 0.0353 2.5337
v  -1.7387 0.0353 2.2967
v  1.7386 0.0353 2.2967
v  -1.7387 0.4188 2.2967
v  1.7386 0.4188 2.2967
v  1.9049 1.3339 -1.9567
v  1.9049 1.1251 -2.0710
v  1.9049 1.1251 -1.7339
v  1.9049 1.3339 -1.6197
v  2.1549 1.3339 -1.9567
v  2.1549 1.1251 -2.0710
v  2.1549 1.3339 -1.6197
v  2.1549 1.1251 -1.7339
v  -2.1550 1.3339 -1.9567
v  -2.1550 1.1251 -2.0710
v  -2.1550 1.1251 -1.7339
v  -2.1550 1.3339 -1.6197
v  -1.9050 1.3339 -1.9567
v  -1.9050 1.1251 -2.0710
v  -1.9050 1.3339 -1.6197
v  -1.9050 1.1251 -1.7339
v  -2.7103 2.2732 -2.3682
v  -2.7103 3.7824 -2.3682
v  -2.7103 3.7824 -2.2882
v  -2.7103 2.2732 -2.2882
v  -2.8743 2.2732 -2.3682
v  -2.8743 3.7824 -2.3682
v  -2.8743 2.2732 -2.2882
v  -2.8743 3.7824 -2.2882
v  -2.4643 3.9566 -2.3682
v  -3.1203 3.9566 -2.3682
v  -3.1203 3.3006 -2.3682
v  -2.4643 3.3006 -2.3682
v  -2.4643 3.9566 -2.4412
v  -3.1203 3.9566 -2.4412
v  -2.4643 3.3006 -2.4412
v  -3.1203 3.3006 -2.4412
v  1.7386 1.1251 -1.7093
v  1.7386 1.1251 -2.0960
v  1.7386 0.0002 -2.9532
v  1.7386 0.0001 -1.5976
v  2.3211 1.1251 -1.7093
v  2.3211 1.1251 -2.0960
v  2.3211 0.0001 -1.5976
v  2.3211 0.0001 -2.9532
v  -2.3212 1.1251 -1.7093
v  -2.3212 1.1251 -2.0960
v  -2.3212 0.0002 -2.9532
v  -2.3212 0.0001 -1.5976
v  -1.7387 1.1251 -2.0960
v  -1.7387 1.1251 -1.7093
v  -1.7387 0.0001 -1.5976
v  -1.7387 0.0001 -2.9532
# 268 vertices

vn -0.9562 0.0000 0.2926
vn 0.0000 1.0000 -0.0000
vn 0.0000 -1.0000 0.0000
vn 0.9562 0.0000 -0.2926
vn 0.0000 -1.0000 -0.0000
vn 0.9562 0.0000 0.2926
vn -0.9562 0.0000 -0.2926
vn 0.0000 0.0000 1.0000
vn 0.0000 0.0000 -1.0000
vn 0.0000 1.0000 0.0000
vn -1.0000 0.0000 -0.0005
vn -1.0000 -0.0000 -0.0005
vn 1.0000 0.0000 0.0005
vn 0.0000 0.8384 0.5451
vn 1.0000 0.0000 -0.0000
vn 0.0000 -1.0000 -0.0003
vn -1.0000 0.0000 -0.0000
vn 0.0000 -0.7971 0.6038
vn 0.0000 -0.7210 -0.6929
vn 0.0000 1.0000 -0.0009
vn 0.0000 -0.8379 -0.5458
vn 0.0000 0.8379 0.5458
vn -1.0000 -0.0000 -0.0000
vn -1.0000 0.0002 0.0001
vn 0.0001 -0.8379 -0.5458
vn -0.0000 -0.8379 -0.5458
vn 1.0000 -0.0000 -0.0000
vn -0.0000 -1.0000 -0.0000
vn -1.0000 0.0000 0.0000
vn 0.0000 0.9176 0.3976
vn 0.0000 0.5561 -0.8311
vn -0.0000 -0.7705 -0.6374
vn 0.0000 -0.7705 -0.6374
vn 1.0000 -0.0000 0.0000
vn 0.0000 0.4804 -0.8771
vn 0.0000 -0.4801 0.8772
vn -0.0000 0.0000 1.0000
vn -1.0000 -0.0000 0.0000
vn 0.0000 0.0988 0.9951
vn -0.0000 0.6061 -0.7954
vn 0.0000 0.6061 -0.7954
# 41 vertex normals

vt 0.3455 0.8419 0.0000
vt 0.3361 0.8420 0.0000
vt 0.3339 0.6040 0.0000
vt 0.3433 0.6039 0.0000
vt 0.3343 0.8426 0.0000
vt 0.3321 0.6046 0.0000
vt 0.3323 0.8426 0.0000
vt 0.3301 0.6046 0.0000
vt 0.3723 0.8399 0.0000
vt 0.3703 0.6019 0.0000
vt 0.3781 0.6042 0.0000
vt 0.3801 0.8422 0.0000
vt 0.3703 0.8399 0.0000
vt 0.3683 0.6019 0.0000
vt 0.3685 0.8405 0.0000
vt 0.3665 0.6025 0.0000
vt 0.3591 0.8406 0.0000
vt 0.3572 0.6025 0.0000
vt 0.3574 0.8400 0.0000
vt 0.3553 0.6020 0.0000
vt 0.3562 0.8400 0.0000
vt 0.3541 0.6020 0.0000
vt 0.3484 0.8425 0.0000
vt 0.3463 0.6045 0.0000
vt 0.3472 0.8425 0.0000
vt 0.3451 0.6045 0.0000
vt 0.2758 0.8402 0.0000
vt 0.2735 0.6022 0.0000
vt 0.2754 0.6027 0.0000
vt 0.2776 0.8408 0.0000
vt 0.2738 0.8402 0.0000
vt 0.2715 0.6022 0.0000
vt 0.3215 0.8398 0.0000
vt 0.3137 0.8423 0.0000
vt 0.3118 0.6043 0.0000
vt 0.3196 0.6018 0.0000
vt 0.3117 0.8423 0.0000
vt 0.3098 0.6043 0.0000
vt 0.3100 0.8418 0.0000
vt 0.3080 0.6037 0.0000
vt 0.3006 0.8418 0.0000
vt 0.2986 0.6038 0.0000
vt 0.2988 0.8424 0.0000
vt 0.2968 0.6044 0.0000
vt 0.2977 0.8424 0.0000
vt 0.2956 0.6044 0.0000
vt 0.2899 0.8401 0.0000
vt 0.2878 0.6021 0.0000
vt 0.2887 0.8401 0.0000
vt 0.2865 0.6021 0.0000
vt 0.2869 0.8407 0.0000
vt 0.2847 0.6027 0.0000
vt 0.0304 0.8635 0.0000
vt 0.0304 0.8607 0.0000
vt 0.2046 0.8592 0.0000
vt 0.2046 0.8620 0.0000
vt 0.2046 0.8651 0.0000
vt 0.0304 0.8666 0.0000
vt 0.2044 0.8422 0.0000
vt 0.0302 0.8437 0.0000
vt 0.0302 0.8419 0.0000
vt 0.2044 0.8403 0.0000
vt 0.2044 0.8449 0.0000
vt 0.0303 0.8465 0.0000
vt 0.0299 0.8053 0.0000
vt 0.2041 0.8038 0.0000
vt 0.2041 0.8069 0.0000
vt 0.0299 0.8083 0.0000
vt 0.0298 0.7934 0.0000
vt 0.2040 0.7919 0.0000
vt 0.0299 0.8111 0.0000
vt 0.2041 0.8096 0.0000
vt 0.2042 0.8239 0.0000
vt 0.0301 0.8254 0.0000
vt 0.2043 0.8266 0.0000
vt 0.0301 0.8281 0.0000
vt 0.2043 0.8285 0.0000
vt 0.0301 0.8300 0.0000
vt 0.3604 0.0238 0.0000
vt 0.3610 0.0941 0.0000
vt 0.3440 0.0942 0.0000
vt 0.3434 0.0239 0.0000
vt 0.6974 0.0208 0.0000
vt 0.6980 0.0910 0.0000
vt 0.3602 0.0067 0.0000
vt 0.6972 0.0037 0.0000
vt 0.0070 0.0970 0.0000
vt 0.0064 0.0267 0.0000
vt 0.6981 0.1081 0.0000
vt 0.3612 0.1111 0.0000
vt 0.7144 0.0206 0.0000
vt 0.7150 0.0909 0.0000
vt 0.1361 0.4717 0.0000
vt 0.1374 0.5379 0.0000
vt 0.1047 0.5386 0.0000
vt 0.1034 0.4724 0.0000
vt 0.2004 0.4935 0.0000
vt 0.2118 0.5102 0.0000
vt 0.1021 0.4044 0.0000
vt 0.1017 0.3842 0.0000
vt 0.1344 0.3836 0.0000
vt 0.1348 0.4038 0.0000
vt 0.0400 0.4967 0.0000
vt 0.0293 0.5139 0.0000
vt 0.0847 0.5708 0.0000
vt 0.0348 0.5398 0.0000
vt 0.1339 0.3571 0.0000
vt 0.1013 0.3577 0.0000
vt 0.1588 0.5693 0.0000
vt 0.2074 0.5363 0.0000
vt 0.1055 0.5765 0.0000
vt 0.1382 0.5759 0.0000
vt 0.4097 0.2809 0.0000
vt 0.4099 0.3470 0.0000
vt 0.3772 0.3471 0.0000
vt 0.3770 0.2809 0.0000
vt 0.4737 0.3037 0.0000
vt 0.4847 0.3207 0.0000
vt 0.3770 0.2130 0.0000
vt 0.3770 0.1927 0.0000
vt 0.4097 0.1927 0.0000
vt 0.4097 0.2129 0.0000
vt 0.3132 0.3041 0.0000
vt 0.3022 0.3211 0.0000
vt 0.3565 0.3790 0.0000
vt 0.3072 0.3471 0.0000
vt 0.4097 0.1662 0.0000
vt 0.3770 0.1662 0.0000
vt 0.4307 0.3788 0.0000
vt 0.4798 0.3467 0.0000
vt 0.3773 0.3851 0.0000
vt 0.4099 0.3850 0.0000
vt 0.9267 0.0116 0.0000
vt 0.9274 0.1025 0.0000
vt 0.9241 0.1013 0.0000
vt 0.9233 0.0065 0.0000
vt 0.9292 0.0115 0.0000
vt 0.9299 0.1024 0.0000
vt 0.9355 0.0211 0.0000
vt 0.9573 0.0212 0.0000
vt 0.9580 0.1123 0.0000
vt 0.9598 0.0212 0.0000
vt 0.9605 0.1123 0.0000
vt 0.9631 0.0212 0.0000
vt 0.9638 0.1134 0.0000
vt 0.8640 0.0220 0.0000
vt 0.8648 0.1143 0.0000
vt 0.8450 0.1144 0.0000
vt 0.8441 0.0222 0.0000
vt 0.8673 0.0220 0.0000
vt 0.8681 0.1130 0.0000
vt 0.8698 0.0219 0.0000
vt 0.8706 0.1130 0.0000
vt 0.8916 0.0215 0.0000
vt 0.8985 0.1027 0.0000
vt 0.8977 0.0118 0.0000
vt 0.9002 0.0118 0.0000
vt 0.9010 0.1027 0.0000
vt 0.9035 0.0067 0.0000
vt 0.9043 0.1015 0.0000
vt 0.5124 0.7549 0.0000
vt 0.5127 0.7815 0.0000
vt 0.3899 0.7826 0.0000
vt 0.3896 0.7560 0.0000
vt 0.5285 0.7944 0.0000
vt 0.3913 0.7956 0.0000
vt 0.5281 0.7418 0.0000
vt 0.3908 0.7429 0.0000
vt 0.3906 0.7163 0.0000
vt 0.5278 0.7151 0.0000
vt 0.0902 0.2118 0.0000
vt 0.0616 0.2121 0.0000
vt 0.0614 0.1963 0.0000
vt 0.0900 0.1959 0.0000
vt 0.0911 0.3106 0.0000
vt 0.0624 0.3109 0.0000
vt 0.0913 0.3324 0.0000
vt 0.0626 0.3327 0.0000
vt 0.0915 0.3611 0.0000
vt 0.0629 0.3614 0.0000
vt 0.0919 0.4102 0.0000
vt 0.0633 0.4104 0.0000
vt 0.1152 0.3482 0.0000
vt 0.1462 0.3102 0.0000
vt 0.1298 0.2197 0.0000
vt 0.1456 0.2196 0.0000
vt 0.0602 0.1056 0.0000
vt 0.0888 0.1052 0.0000
vt 0.0222 0.2206 0.0000
vt 0.0073 0.3114 0.0000
vt 0.0064 0.2208 0.0000
vt 0.0390 0.3489 0.0000
vt 0.2407 0.2118 0.0000
vt 0.2121 0.2121 0.0000
vt 0.2119 0.1963 0.0000
vt 0.2405 0.1959 0.0000
vt 0.2416 0.3106 0.0000
vt 0.2130 0.3109 0.0000
vt 0.2418 0.3324 0.0000
vt 0.2132 0.3327 0.0000
vt 0.2420 0.3611 0.0000
vt 0.2134 0.3614 0.0000
vt 0.2424 0.4102 0.0000
vt 0.2138 0.4104 0.0000
vt 0.2657 0.3482 0.0000
vt 0.2967 0.3102 0.0000
vt 0.2803 0.2197 0.0000
vt 0.2961 0.2195 0.0000
vt 0.2106 0.1056 0.0000
vt 0.2392 0.1052 0.0000
vt 0.1727 0.2206 0.0000
vt 0.1579 0.3115 0.0000
vt 0.1569 0.2208 0.0000
vt 0.1895 0.3489 0.0000
vt 0.4904 0.4047 0.0000
vt 0.4912 0.4956 0.0000
vt 0.4879 0.4944 0.0000
vt 0.4871 0.3997 0.0000
vt 0.4929 0.4047 0.0000
vt 0.4937 0.4956 0.0000
vt 0.4993 0.4142 0.0000
vt 0.5210 0.4143 0.0000
vt 0.5218 0.5054 0.0000
vt 0.5236 0.4143 0.0000
vt 0.5243 0.5054 0.0000
vt 0.5269 0.4143 0.0000
vt 0.5276 0.5065 0.0000
vt 0.5467 0.4141 0.0000
vt 0.5474 0.5064 0.0000
vt 0.4278 0.4152 0.0000
vt 0.4311 0.4151 0.0000
vt 0.4319 0.5062 0.0000
vt 0.4286 0.5074 0.0000
vt 0.4336 0.4151 0.0000
vt 0.4344 0.5062 0.0000
vt 0.4553 0.4146 0.0000
vt 0.4623 0.4959 0.0000
vt 0.4615 0.4050 0.0000
vt 0.4640 0.4049 0.0000
vt 0.4648 0.4958 0.0000
vt 0.4672 0.3999 0.0000
vt 0.4681 0.4946 0.0000
vt 0.4056 0.6922 0.0000
vt 0.4054 0.6656 0.0000
vt 0.5282 0.6645 0.0000
vt 0.5284 0.6911 0.0000
vt 0.3895 0.6527 0.0000
vt 0.5268 0.6515 0.0000
vt 0.3893 0.6260 0.0000
vt 0.5266 0.6249 0.0000
vt 0.5272 0.7041 0.0000
vt 0.3900 0.7054 0.0000
vt 0.2727 0.5722 0.0000
vt 0.4469 0.5707 0.0000
vt 0.4470 0.5850 0.0000
vt 0.2728 0.5865 0.0000
vt 0.2727 0.5695 0.0000
vt 0.4469 0.5680 0.0000
vt 0.2726 0.5539 0.0000
vt 0.4467 0.5524 0.0000
vt 0.4468 0.5542 0.0000
vt 0.2726 0.5557 0.0000
vt 0.2726 0.5511 0.0000
vt 0.4467 0.5496 0.0000
vt 0.2724 0.5369 0.0000
vt 0.4466 0.5354 0.0000
vt 0.2724 0.5341 0.0000
vt 0.4466 0.5326 0.0000
vt 0.4470 0.5877 0.0000
vt 0.2729 0.5893 0.0000
vt 0.2724 0.5311 0.0000
vt 0.4466 0.5295 0.0000
vt 0.2723 0.5192 0.0000
vt 0.4464 0.5176 0.0000
vt 0.4471 0.5908 0.0000
vt 0.2729 0.5924 0.0000
vt 0.2727 0.5676 0.0000
vt 0.4469 0.5661 0.0000
vt 0.1854 0.2008 0.0000
vt 0.1852 0.1889 0.0000
vt 0.2001 0.1968 0.0000
vt 0.2002 0.2087 0.0000
vt 0.1728 0.2009 0.0000
vt 0.1727 0.1890 0.0000
vt 0.1581 0.2091 0.0000
vt 0.1580 0.1972 0.0000
vt 0.1456 0.2092 0.0000
vt 0.1455 0.1973 0.0000
vt 0.0186 0.3751 0.0000
vt 0.0067 0.3752 0.0000
vt 0.0147 0.3604 0.0000
vt 0.0266 0.3603 0.0000
vt 0.0187 0.3877 0.0000
vt 0.0068 0.3878 0.0000
vt 0.0269 0.4024 0.0000
vt 0.0150 0.4025 0.0000
vt 0.0265 0.3477 0.0000
vt 0.0146 0.3478 0.0000
vt 0.0104 0.1094 0.0000
vt 0.0110 0.1850 0.0000
vt 0.0070 0.1851 0.0000
vt 0.0064 0.1095 0.0000
vt 0.0186 0.1094 0.0000
vt 0.0192 0.1850 0.0000
vt 0.0103 0.1054 0.0000
vt 0.0185 0.1054 0.0000
vt 0.0315 0.1848 0.0000
vt 0.0233 0.1849 0.0000
vt 0.0226 0.1093 0.0000
vt 0.0308 0.1093 0.0000
vt 0.0111 0.1890 0.0000
vt 0.0193 0.1890 0.0000
vt 0.0799 0.4543 0.0000
vt 0.0470 0.4545 0.0000
vt 0.0467 0.4217 0.0000
vt 0.0796 0.4214 0.0000
vt 0.0105 0.4585 0.0000
vt 0.0105 0.4549 0.0000
vt 0.0434 0.4546 0.0000
vt 0.0434 0.4582 0.0000
vt 0.0068 0.4549 0.0000
vt 0.0065 0.4220 0.0000
vt 0.0102 0.4220 0.0000
vt 0.0430 0.4181 0.0000
vt 0.0431 0.4217 0.0000
vt 0.0102 0.4184 0.0000
vt 0.0635 0.6763 0.0000
vt 0.0828 0.6761 0.0000
vt 0.1262 0.7321 0.0000
vt 0.0583 0.7327 0.0000
vt 0.0632 0.6471 0.0000
vt 0.0826 0.6469 0.0000
vt 0.0068 0.6768 0.0000
vt 0.0066 0.6476 0.0000
vt 0.2216 0.6746 0.0000
vt 0.1537 0.6754 0.0000
vt 0.1534 0.6462 0.0000
vt 0.2213 0.6454 0.0000
vt 0.0571 0.5908 0.0000
vt 0.1250 0.5902 0.0000
vt 0.2591 0.4522 0.0000
vt 0.2785 0.4520 0.0000
vt 0.3219 0.5080 0.0000
vt 0.2540 0.5086 0.0000
vt 0.2782 0.4228 0.0000
vt 0.2588 0.4230 0.0000
vt 0.2025 0.4527 0.0000
vt 0.2022 0.4235 0.0000
vt 0.4172 0.4505 0.0000
vt 0.3493 0.4513 0.0000
vt 0.3490 0.4221 0.0000
vt 0.4169 0.4214 0.0000
vt 0.2528 0.3667 0.0000
vt 0.3207 0.3661 0.0000
# 354 texture coords

g Mesh
usemtl Metal
f 1/1/1 2/2/1 3/3/1 4/4/1 
f 2/2/2 5/5/2 6/6/2 3/3/2 
f 5/5/1 7/7/1 8/8/1 6/6/1 
f 9/9/3 10/10/3 8/11/3 7/12/3 
f 9/9/4 11/13/4 12/14/4 10/10/4 
f 11/13/2 13/15/2 14/16/2 12/14/2 
f 13/15/4 15/17/4 16/18/4 14/16/4 
f 17/19/5 18/20/5 16/18/5 15/17/5 
f 17/19/4 19/21/4 20/22/4 18/20/4 
f 19/21/2 21/23/2 22/24/2 20/22/2 
f 21/23/1 23/25/1 24/26/1 22/24/1 
f 1/1/5 4/4/5 24/26/5 23/25/5 
f 25/27/2 26/28/2 27/29/2 28/30/2 
f 25/27/6 29/31/6 30/32/6 26/28/6 
f 29/33/3 31/34/3 32/35/3 30/36/3 
f 31/34/7 33/37/7 34/38/7 32/35/7 
f 35/39/2 36/40/2 34/38/2 33/37/2 
f 35/39/7 37/41/7 38/42/7 36/40/7 
f 37/41/5 39/43/5 40/44/5 38/42/5 
f 39/43/7 41/45/7 42/46/7 40/44/7 
f 43/47/2 44/48/2 42/46/2 41/45/2 
f 43/47/6 45/49/6 46/50/6 44/48/6 
f 45/49/5 47/51/5 48/52/5 46/50/5 
f 47/51/6 28/30/6 27/29/6 48/52/6 
f 49/53/2 50/54/2 51/55/2 52/56/2 
f 49/53/8 52/56/8 53/57/8 54/58/8 
f 55/59/8 56/60/8 57/61/8 58/62/8 
f 55/59/5 59/63/5 60/64/5 56/60/5 
f 51/55/8 50/54/8 60/64/8 59/63/8 
f 61/65/9 62/66/9 63/67/9 64/68/9 
f 61/65/3 54/69/3 53/70/3 62/66/3 
f 65/71/10 64/68/10 63/67/10 66/72/10 
f 67/73/9 68/74/9 65/71/9 66/72/9 
f 67/73/5 69/75/5 70/76/5 68/74/5 
f 71/77/9 72/78/9 70/76/9 69/75/9 
f 71/77/2 58/62/2 57/61/2 72/78/2 
usemtl Wood
f 73/79/11 74/80/11 75/81/11 76/82/12 
f 73/79/9 77/83/9 78/84/9 74/80/9 
f 73/79/2 76/85/2 79/86/2 77/83/2 
f 75/81/8 80/87/8 79/88/8 76/82/8 
f 74/80/5 78/84/5 80/89/5 75/90/5 
f 78/84/13 77/83/13 79/91/13 80/92/13 
usemtl Metal
f 81/93/14 82/94/14 83/95/14 84/96/14 
f 85/97/15 86/98/15 82/94/15 81/93/15 
f 87/99/16 88/100/16 86/101/16 85/102/16 
f 87/103/17 84/96/17 83/95/17 88/104/17 
f 85/102/18 81/93/18 84/96/18 87/99/18 
f 89/105/17 90/106/17 88/104/17 83/95/17 
f 91/107/19 86/101/19 88/100/19 90/108/19 
f 92/109/15 82/94/15 86/98/15 91/110/15 
f 89/111/20 83/95/20 82/94/20 92/112/20 
f 93/113/14 94/114/14 95/115/14 96/116/14 
f 97/117/15 98/118/15 94/114/15 93/113/15 
f 99/119/16 100/120/16 98/121/16 97/122/16 
f 99/123/17 96/116/17 95/115/17 100/124/17 
f 97/122/18 93/113/18 96/116/18 99/119/18 
f 101/125/17 102/126/17 100/124/17 95/115/17 
f 103/127/19 98/121/19 100/120/19 102/128/19 
f 104/129/15 94/114/15 98/118/15 103/130/15 
f 101/131/20 95/115/20 94/114/20 104/132/20 
f 105/133/15 106/134/15 107/135/15 108/136/15 
f 105/133/21 109/137/21 110/138/21 106/134/21 
f 110/138/15 109/137/15 111/139/15 
f 112/140/15 113/141/15 110/138/15 111/139/15 
f 114/142/22 115/143/22 113/141/22 112/140/22 
f 116/144/15 117/145/15 115/143/15 114/142/15 
f 118/146/21 119/147/21 117/148/21 116/149/21 
f 118/146/17 120/150/17 121/151/17 119/147/17 
f 122/152/22 123/153/22 121/151/22 120/150/22 
f 122/152/23 124/154/23 125/155/23 123/153/17 
f 125/155/24 124/154/24 126/156/24 
f 127/157/25 128/158/25 125/155/25 126/156/26 
f 127/157/17 129/159/17 130/160/17 128/158/17 
f 108/136/22 107/135/22 130/160/22 129/159/22 
f 131/161/10 132/162/10 133/163/10 134/164/10 
f 132/162/15 135/165/15 136/166/15 133/163/27 
f 137/167/28 138/168/28 136/169/28 135/170/5 
f 131/161/29 134/164/29 138/168/29 137/167/29 
f 139/171/8 140/172/8 141/173/8 142/174/8 
f 143/175/30 144/176/30 140/172/30 139/171/30 
f 145/177/10 146/178/10 144/176/10 143/175/10 
f 147/179/31 148/180/31 146/178/31 145/177/31 
f 147/179/32 149/181/32 150/182/32 148/180/33 
f 147/183/27 145/177/27 143/175/27 149/184/27 
f 139/185/15 142/186/15 149/184/15 143/175/27 
f 141/173/28 150/187/28 149/188/28 142/174/5 
f 140/189/29 144/176/29 150/190/29 141/191/29 
f 144/176/29 146/178/29 148/192/29 150/190/29 
f 151/193/8 152/194/8 153/195/8 154/196/8 
f 155/197/30 156/198/30 152/194/30 151/193/30 
f 157/199/10 158/200/10 156/198/10 155/197/10 
f 159/201/31 160/202/31 158/200/31 157/199/31 
f 159/201/32 161/203/32 162/204/32 160/202/33 
f 159/205/27 157/199/27 155/197/27 161/206/34 
f 151/207/15 154/208/15 161/206/15 155/197/27 
f 153/195/28 162/209/28 161/210/28 154/196/5 
f 152/211/29 156/198/29 162/212/29 153/213/29 
f 156/198/29 158/200/29 160/214/29 162/212/29 
f 163/215/15 164/216/15 165/217/15 166/218/15 
f 163/215/21 167/219/21 168/220/21 164/216/21 
f 168/220/15 167/219/15 169/221/15 
f 170/222/15 171/223/15 168/220/15 169/221/15 
f 172/224/22 173/225/22 171/223/22 170/222/22 
f 174/226/15 175/227/15 173/225/15 172/224/15 
f 176/228/21 177/229/21 175/227/21 174/226/21 
f 176/230/17 178/231/17 179/232/17 177/233/17 
f 180/234/22 181/235/22 179/232/22 178/231/22 
f 180/234/23 182/236/23 183/237/23 181/235/17 
f 183/237/24 182/236/24 184/238/24 
f 185/239/25 186/240/25 183/237/25 184/238/26 
f 185/239/17 187/241/17 188/242/17 186/240/17 
f 166/218/22 165/217/22 188/242/22 187/241/22 
f 189/243/10 190/244/10 191/245/10 192/246/10 
f 190/244/27 193/247/27 194/248/27 191/245/27 
f 195/249/28 196/250/28 194/248/28 193/247/5 
f 189/243/29 192/246/29 196/251/29 195/252/29 
f 197/253/9 198/254/9 199/255/9 200/256/9 
f 197/253/3 201/257/3 202/258/3 198/254/3 
f 203/259/8 204/260/8 205/261/8 206/262/8 
f 203/259/5 207/263/5 208/264/5 204/260/5 
f 209/265/8 210/266/8 208/264/8 207/263/8 
f 209/265/10 211/267/10 212/268/10 210/266/10 
f 199/255/10 213/269/10 214/270/10 200/256/10 
f 212/268/8 211/267/8 215/271/8 216/272/8 
f 215/271/5 217/273/5 218/274/5 216/272/5 
f 214/270/9 213/269/9 218/275/9 217/276/9 
f 219/277/2 206/262/2 205/261/2 220/278/2 
f 202/258/9 201/257/9 219/277/9 220/278/9 
f 221/279/17 222/280/17 223/281/17 224/282/17 
f 221/279/35 225/283/35 226/284/35 222/280/35 
f 225/283/15 227/285/15 228/286/15 226/284/15 
f 227/285/36 224/287/36 223/288/36 228/286/36 
f 229/289/17 230/290/17 231/291/17 232/292/17 
f 229/289/35 233/293/35 234/294/35 230/290/35 
f 233/293/15 235/295/15 236/296/15 234/294/15 
f 235/297/36 232/292/36 231/291/36 236/298/36 
f 237/299/15 238/300/15 239/301/15 240/302/15 
f 237/299/9 241/303/9 242/304/9 238/300/9 
f 237/299/5 240/305/5 243/306/5 241/303/5 
f 239/307/37 244/308/37 243/309/37 240/310/37 
f 239/311/2 238/300/2 242/304/2 244/312/2 
f 242/304/17 241/303/17 243/309/17 244/308/17 
usemtl Wood
f 245/313/37 246/314/37 247/315/37 248/316/37 
f 245/317/2 249/318/2 250/319/2 246/320/2 
f 245/321/15 248/322/15 251/323/15 249/318/15 
f 247/324/5 252/325/5 251/323/5 248/326/5 
f 247/315/17 246/314/17 250/319/17 252/325/17 
f 250/319/9 249/318/9 251/323/9 252/325/9 
usemtl Metal
f 253/327/38 254/328/38 255/329/38 256/330/29 
f 253/327/10 257/331/10 258/332/10 254/328/10 
f 256/333/39 259/334/39 257/331/39 253/327/39 
f 256/335/28 255/336/28 260/337/28 259/338/28 
f 255/336/40 254/328/40 258/332/40 260/337/41 
f 257/331/27 259/339/27 260/340/27 258/332/15 
f 261/341/29 262/342/29 263/343/29 264/344/29 
f 265/345/10 262/342/10 261/341/10 266/346/10 
f 264/347/39 267/348/39 266/346/39 261/341/39 
f 264/349/28 263/350/28 268/351/28 267/352/28 
f 263/350/40 262/342/40 265/345/40 268/351/41 
f 266/346/27 267/353/27 268/354/27 265/345/27 
# 156 polygons - 4 triangles

