# 3ds Max Wavefront OBJ Exporter v0.97b - (c)2007 guruware
# File Created: 31.10.2016 11:20:52

mtllib carBody_hook_a.mtl

#
# object Mesh
#

v  0.4713 -0.2383 1.4891
v  0.4467 -0.2383 1.4935
v  0.4076 -0.2383 1.3788
v  0.4817 -0.2383 1.5541
v  0.5021 -0.2383 1.5424
v  0.5021 0.2383 1.5424
v  0.4713 0.2383 1.4891
v  0.4076 0.2383 1.3788
v  0.1475 0.2383 1.3788
v  0.1475 -0.2383 1.3788
v  -0.3214 -0.2383 1.4582
v  -0.3620 -0.2383 1.4582
v  -0.4091 -0.2383 1.4935
v  0.4467 0.2383 1.4935
v  -0.4091 0.2383 1.4935
v  -0.3620 0.2383 1.4582
v  -0.3214 0.2383 1.4582
v  -0.1467 0.2383 1.3788
v  0.4817 0.2383 1.5541
v  0.5125 0.1192 1.6074
v  0.5328 0.1192 1.5956
v  0.5125 -0.1191 1.6074
v  0.5328 -0.1191 1.5956
v  -0.1467 0.2383 1.1199
v  0.1475 0.2383 1.1199
v  0.1475 -0.2383 1.1199
v  -0.1467 -0.2383 1.3788
v  -0.1467 -0.2383 1.1199
v  -0.3620 -0.2383 1.2817
v  -0.3620 0.2383 1.2817
v  -0.4091 0.2383 1.2817
v  -0.4091 -0.2383 1.2817
v  0.3222 -0.2118 1.4494
v  -0.3214 -0.2118 1.4494
v  -0.3214 -0.2118 1.3249
v  0.3222 -0.2118 1.3249
v  -0.2096 -0.2118 1.1313
v  0.2104 -0.2118 1.1313
v  0.0004 -0.2118 1.0549
v  0.0004 -0.2019 1.0163
v  -0.2344 -0.2019 1.1018
v  -0.3593 -0.2019 1.3182
v  -0.3593 -0.2019 1.4494
v  -0.3214 0.2118 1.4494
v  -0.3593 0.2020 1.4494
v  -0.3593 0.2020 1.3182
v  -0.3214 0.2118 1.3249
v  0.3222 0.2118 1.4494
v  0.3222 0.2118 1.3249
v  0.3601 0.2020 1.4494
v  0.3601 0.2020 1.3182
v  0.3879 0.1751 1.4494
v  0.3879 0.1751 1.3133
v  0.3981 0.1383 1.3115
v  0.3981 0.1383 1.4494
v  0.3981 -0.1382 1.4494
v  0.3879 -0.1750 1.4494
v  0.3601 -0.2019 1.4494
v  0.3601 -0.2019 1.3182
v  0.2352 -0.2019 1.1018
v  0.0004 -0.1750 0.9881
v  0.2533 -0.1750 1.0802
v  0.2600 -0.1382 1.0723
v  0.0004 -0.1382 0.9778
v  -0.2592 -0.1382 1.0723
v  -0.2525 -0.1750 1.0802
v  -0.3871 -0.1750 1.3133
v  -0.3871 -0.1750 1.4494
v  -0.3871 0.1751 1.4494
v  -0.3871 0.1751 1.3133
v  -0.2525 0.1751 1.0802
v  -0.2344 0.2020 1.1018
v  -0.2096 0.2118 1.1313
v  0.2104 0.2118 1.1313
v  0.2352 0.2020 1.1018
v  0.2533 0.1751 1.0802
v  0.2600 0.1383 1.0723
v  0.3981 -0.1382 1.3115
v  0.3879 -0.1750 1.3133
v  0.0004 0.1383 0.9778
v  -0.2592 0.1383 1.0723
v  0.0004 0.1751 0.9881
v  -0.3973 0.1383 1.3115
v  -0.3973 0.1383 1.4494
v  -0.3973 -0.1382 1.4494
v  -0.3973 -0.1382 1.3115
v  0.0004 0.2020 1.0163
v  0.0004 0.2118 1.0549
v  -0.1667 -0.0647 -0.3120
v  0.1675 -0.0647 -0.3120
v  0.2708 -0.0647 0.1044
v  -0.2700 -0.0647 0.1044
v  0.1675 0.0647 -0.3120
v  -0.1667 0.0647 -0.3120
v  0.2708 0.0647 0.1044
v  -0.2700 0.0647 0.1044
v  -0.1173 0.0647 0.2497
v  -0.1173 -0.0647 0.2497
v  0.1181 -0.0647 0.2497
v  0.1181 0.0647 0.2497
v  -0.1173 0.0647 1.0206
v  0.0004 0.0647 0.9778
v  -0.1173 -0.0647 1.0206
v  0.0004 -0.0647 0.9778
v  0.1181 -0.0647 1.0206
v  0.1181 0.0647 1.0206
# 106 vertices

vn 0.0000 -1.0000 -0.0000
vn 0.8659 0.0000 -0.5002
vn 0.8660 0.0000 -0.5001
vn 0.0000 0.0000 -1.0000
vn 0.0000 0.0000 1.0000
vn 0.0000 1.0000 -0.0000
vn 0.4425 0.4591 0.7704
vn 0.4420 0.4592 0.7706
vn 0.4881 0.2358 0.8403
vn 0.4884 0.2359 0.8401
vn 0.4883 -0.2360 0.8401
vn 0.4881 -0.2362 0.8402
vn 0.4427 -0.4581 0.7708
vn 0.4423 -0.4581 0.7711
vn 0.8661 0.0000 -0.4998
vn -0.8659 0.0000 0.5002
vn -0.8658 0.0000 0.5003
vn -0.8659 0.0000 0.5001
vn 1.0000 0.0000 -0.0000
vn -1.0000 0.0000 -0.0000
vn -0.2117 0.0000 -0.9773
vn -0.4138 0.0000 -0.9104
vn 0.1274 -0.9919 -0.0000
vn -0.1274 -0.9919 -0.0000
vn -0.1411 -0.9892 -0.0405
vn 0.1411 -0.9892 -0.0405
vn -0.0981 -0.9883 -0.1169
vn 0.0981 -0.9883 -0.1169
vn 0.0000 -0.9883 -0.1524
vn -0.0000 -0.8508 -0.5255
vn -0.3381 -0.8506 -0.4027
vn -0.4987 -0.8558 -0.1376
vn -0.4901 -0.8717 -0.0000
vn -0.4978 0.8563 -0.1374
vn -0.4890 0.8723 -0.0000
vn -0.1262 0.9920 -0.0000
vn -0.1397 0.9894 -0.0402
vn 0.1262 0.9920 -0.0000
vn 0.1397 0.9894 -0.0402
vn 0.4890 0.8723 -0.0000
vn 0.4978 0.8563 -0.1374
vn 0.8597 0.5108 -0.0000
vn 0.8387 0.4963 -0.2240
vn 0.9577 0.1334 -0.2548
vn 0.9909 0.1348 -0.0000
vn 0.4987 -0.8558 -0.1376
vn 0.4901 -0.8717 -0.0000
vn 0.3381 -0.8506 -0.4027
vn 0.0000 -0.4909 -0.8712
vn 0.5597 -0.4915 -0.6672
vn 0.6372 -0.1329 -0.7591
vn 0.0000 -0.1322 -0.9912
vn -0.6372 -0.1329 -0.7591
vn -0.5597 -0.4915 -0.6672
vn -0.8387 -0.4963 -0.2240
vn -0.8597 -0.5108 -0.0000
vn -0.8387 0.4963 -0.2240
vn -0.8597 0.5108 -0.0000
vn -0.5597 0.4915 -0.6672
vn -0.3376 0.8511 -0.4020
vn -0.0971 0.9885 -0.1158
vn 0.0971 0.9885 -0.1158
vn 0.3376 0.8511 -0.4020
vn 0.5597 0.4915 -0.6672
vn 0.6372 0.1329 -0.7591
vn 0.9577 -0.1334 -0.2548
vn 0.9909 -0.1348 -0.0000
vn 0.8387 -0.4963 -0.2240
vn 0.8597 -0.5108 -0.0000
vn -0.0000 0.1322 -0.9912
vn -0.6372 0.1329 -0.7591
vn -0.0000 0.4909 -0.8712
vn -0.9577 0.1334 -0.2548
vn -0.9909 0.1348 -0.0000
vn -0.9909 -0.1348 -0.0000
vn -0.9577 -0.1334 -0.2548
vn 0.0000 0.8513 -0.5247
vn 0.0000 0.9885 -0.1509
vn -0.9706 0.0000 -0.2408
vn -0.6893 0.0000 0.7244
vn 0.6893 0.0000 0.7244
vn 0.9706 0.0000 -0.2408
# 82 vertex normals

vt 0.4325 0.9817 0.0000
vt 0.4332 0.9816 0.0000
vt 0.4342 0.9847 0.0000
vt 0.4323 0.9800 0.0000
vt 0.4317 0.9804 0.0000
vt 0.5607 0.9493 0.0000
vt 0.5607 0.9619 0.0000
vt 0.5590 0.9619 0.0000
vt 0.5590 0.9493 0.0000
vt 0.5557 0.9619 0.0000
vt 0.5557 0.9493 0.0000
vt 0.5488 0.9493 0.0000
vt 0.5488 0.9619 0.0000
vt 0.4411 0.9847 0.0000
vt 0.4534 0.9826 0.0000
vt 0.4546 0.9826 0.0000
vt 0.4558 0.9816 0.0000
vt 0.9915 0.3555 0.0000
vt 0.9689 0.3555 0.0000
vt 0.9689 0.3429 0.0000
vt 0.9915 0.3429 0.0000
vt 0.9929 0.8211 0.0000
vt 0.9941 0.8221 0.0000
vt 0.9715 0.8221 0.0000
vt 0.9918 0.8211 0.0000
vt 0.9872 0.8191 0.0000
vt 0.9794 0.8191 0.0000
vt 0.9725 0.8191 0.0000
vt 0.9708 0.8220 0.0000
vt 0.9706 0.8237 0.0000
vt 0.9700 0.8234 0.0000
vt 0.6033 0.8878 0.0000
vt 0.6033 0.8885 0.0000
vt 0.5998 0.8884 0.0000
vt 0.5998 0.8877 0.0000
vt 0.5935 0.8884 0.0000
vt 0.5935 0.8877 0.0000
vt 0.5899 0.8883 0.0000
vt 0.5899 0.8876 0.0000
vt 0.5623 0.9524 0.0000
vt 0.5623 0.9588 0.0000
vt 0.9671 0.3555 0.0000
vt 0.9654 0.3524 0.0000
vt 0.9654 0.3460 0.0000
vt 0.9671 0.3429 0.0000
vt 0.9872 0.8122 0.0000
vt 0.9794 0.8122 0.0000
vt 0.5419 0.9619 0.0000
vt 0.5419 0.9493 0.0000
vt 0.4411 0.9916 0.0000
vt 0.4489 0.9847 0.0000
vt 0.4489 0.9916 0.0000
vt 0.6746 0.9258 0.0000
vt 0.6746 0.9133 0.0000
vt 0.6814 0.9133 0.0000
vt 0.6814 0.9258 0.0000
vt 0.6865 0.9258 0.0000
vt 0.6865 0.9133 0.0000
vt 0.6876 0.9258 0.0000
vt 0.6876 0.9133 0.0000
vt 0.6923 0.9133 0.0000
vt 0.6923 0.9258 0.0000
vt 0.9972 0.3429 0.0000
vt 0.9984 0.3429 0.0000
vt 0.9984 0.3555 0.0000
vt 0.9972 0.3555 0.0000
vt 0.4558 0.9873 0.0000
vt 0.4546 0.9873 0.0000
vt 0.9941 0.8165 0.0000
vt 0.9929 0.8165 0.0000
vt 0.9873 0.0077 0.0000
vt 0.9873 0.0000 0.0000
vt 1.0000 0.0000 0.0000
vt 1.0000 0.0077 0.0000
vt 0.9733 0.6939 0.0000
vt 0.9903 0.6939 0.0000
vt 0.9903 0.6972 0.0000
vt 0.9733 0.6972 0.0000
vt 0.9874 0.7023 0.0000
vt 0.9763 0.7023 0.0000
vt 0.9818 0.7043 0.0000
vt 0.9818 0.7053 0.0000
vt 0.9881 0.7032 0.0000
vt 0.9881 0.7031 0.0000
vt 0.9914 0.6974 0.0000
vt 0.9914 0.6939 0.0000
vt 0.9926 0.8634 0.0000
vt 0.9916 0.8638 0.0000
vt 0.9916 0.8526 0.0000
vt 0.9926 0.8528 0.0000
vt 0.9939 0.4313 0.0000
vt 0.9939 0.4347 0.0000
vt 0.9929 0.4347 0.0000
vt 0.9929 0.4314 0.0000
vt 0.9759 0.4347 0.0000
vt 0.9759 0.4314 0.0000
vt 0.9749 0.4347 0.0000
vt 0.9748 0.4313 0.0000
vt 0.9739 0.4347 0.0000
vt 0.9737 0.4312 0.0000
vt 0.9727 0.4310 0.0000
vt 0.9728 0.4347 0.0000
vt 0.9726 0.8618 0.0000
vt 0.9726 0.8545 0.0000
vt 0.9728 0.8535 0.0000
vt 0.9728 0.8627 0.0000
vt 0.9735 0.8528 0.0000
vt 0.9735 0.8634 0.0000
vt 0.9745 0.8526 0.0000
vt 0.9745 0.8638 0.0000
vt 0.9723 0.6974 0.0000
vt 0.9723 0.6939 0.0000
vt 0.9756 0.7031 0.0000
vt 0.9818 0.7055 0.0000
vt 0.9756 0.7032 0.0000
vt 0.9817 0.7065 0.0000
vt 0.9750 0.7040 0.0000
vt 0.9746 0.7049 0.0000
vt 0.9815 0.7074 0.0000
vt 0.9891 0.7049 0.0000
vt 0.9823 0.7074 0.0000
vt 0.9819 0.7065 0.0000
vt 0.9886 0.7040 0.0000
vt 0.9888 0.7039 0.0000
vt 0.9924 0.6976 0.0000
vt 0.9925 0.6939 0.0000
vt 0.9925 0.6975 0.0000
vt 0.9933 0.8627 0.0000
vt 0.9933 0.8535 0.0000
vt 0.9949 0.4312 0.0000
vt 0.9949 0.4347 0.0000
vt 0.9914 0.4248 0.0000
vt 0.9949 0.4309 0.0000
vt 0.9939 0.4312 0.0000
vt 0.9906 0.4255 0.0000
vt 0.9899 0.4263 0.0000
vt 0.9788 0.4263 0.0000
vt 0.9782 0.4255 0.0000
vt 0.9749 0.4312 0.0000
vt 0.9774 0.4248 0.0000
vt 0.9739 0.4309 0.0000
vt 0.9730 0.4305 0.0000
vt 0.9766 0.4241 0.0000
vt 0.3113 0.9742 0.0000
vt 0.3113 0.9670 0.0000
vt 0.3187 0.9670 0.0000
vt 0.3187 0.9742 0.0000
vt 0.3223 0.9670 0.0000
vt 0.3223 0.9742 0.0000
vt 0.9713 0.6975 0.0000
vt 0.9703 0.6975 0.0000
vt 0.9703 0.6939 0.0000
vt 0.9713 0.6939 0.0000
vt 0.9749 0.7039 0.0000
vt 0.9713 0.6976 0.0000
vt 0.9704 0.6981 0.0000
vt 0.9740 0.7044 0.0000
vt 0.3041 0.9742 0.0000
vt 0.3041 0.9670 0.0000
vt 0.2967 0.9742 0.0000
vt 0.2967 0.9670 0.0000
vt 0.9912 0.4246 0.0000
vt 0.9845 0.4222 0.0000
vt 0.9847 0.4212 0.0000
vt 0.9916 0.4237 0.0000
vt 0.9922 0.4241 0.0000
vt 0.9958 0.4305 0.0000
vt 0.9959 0.4310 0.0000
vt 0.9959 0.4347 0.0000
vt 0.9935 0.8545 0.0000
vt 0.9936 0.8618 0.0000
vt 0.9935 0.6939 0.0000
vt 0.9935 0.6975 0.0000
vt 0.9933 0.6981 0.0000
vt 0.9896 0.7044 0.0000
vt 0.2895 0.9742 0.0000
vt 0.2895 0.9670 0.0000
vt 0.2857 0.9742 0.0000
vt 0.2857 0.9670 0.0000
vt 0.9844 0.4232 0.0000
vt 0.9844 0.4243 0.0000
vt 0.9843 0.4222 0.0000
vt 0.9776 0.4246 0.0000
vt 0.9771 0.4237 0.0000
vt 0.9840 0.4212 0.0000
vt 0.9602 0.2770 0.0000
vt 0.9602 0.2682 0.0000
vt 0.9713 0.2655 0.0000
vt 0.9713 0.2797 0.0000
vt 0.0462 0.9946 0.0000
vt 0.0462 0.9980 0.0000
vt 0.0372 0.9980 0.0000
vt 0.0373 0.9946 0.0000
vt 0.9843 0.4735 0.0000
vt 0.9953 0.4762 0.0000
vt 0.9953 0.4850 0.0000
vt 0.9843 0.4877 0.0000
vt 0.0259 0.9980 0.0000
vt 0.0259 0.9946 0.0000
vt 0.0204 0.9946 0.0000
vt 0.0204 0.9980 0.0000
vt 0.9751 0.2758 0.0000
vt 0.9751 0.2695 0.0000
vt 0.0630 0.9980 0.0000
vt 0.0575 0.9980 0.0000
vt 0.0575 0.9946 0.0000
vt 0.0630 0.9946 0.0000
vt 0.9805 0.4838 0.0000
vt 0.9805 0.4775 0.0000
vt 0.9600 0.4838 0.0000
vt 0.9611 0.4806 0.0000
vt 0.0000 0.9980 0.0000
vt 0.0000 0.9946 0.0000
vt 0.9943 0.2726 0.0000
vt 0.9955 0.2695 0.0000
vt 0.0835 0.9946 0.0000
vt 0.0834 0.9980 0.0000
vt 0.9600 0.4775 0.0000
vt 0.9955 0.2758 0.0000
# 219 texture coords

g Mesh
usemtl Default
f 1/1/1 2/2/1 3/3/1 
f 4/4/1 2/2/1 1/1/1 5/5/1 
f 6/6/2 5/7/2 1/8/2 7/9/2 
f 7/9/2 1/8/2 3/10/3 8/11/3 
f 9/12/4 8/11/4 3/10/4 10/13/4 
f 10/14/1 3/3/1 2/2/1 11/15/1 
f 12/16/1 11/15/1 2/2/1 13/17/1 
f 13/18/5 2/19/5 14/20/5 15/21/5 
f 16/22/6 15/23/6 14/24/6 17/25/6 
f 14/24/6 18/26/6 17/25/6 
f 14/24/6 9/27/6 18/26/6 
f 14/24/6 8/28/6 9/27/6 
f 7/29/6 8/28/6 14/24/6 
f 7/29/6 14/24/6 19/30/6 6/31/6 
f 6/32/7 19/33/8 20/34/9 21/35/10 
f 21/35/10 20/34/9 22/36/11 23/37/12 
f 23/37/12 22/36/11 4/38/13 5/39/14 
f 21/40/15 23/41/15 5/7/2 6/6/2 
f 4/42/16 22/43/17 20/44/17 19/45/16 
f 14/20/18 2/19/18 4/42/16 19/45/16 
f 24/46/6 18/26/6 9/27/6 25/47/6 
f 26/48/19 25/49/19 9/12/19 10/13/19 
f 26/50/1 10/14/1 27/51/1 28/52/1 
f 24/53/20 28/54/20 27/55/20 18/56/20 
f 17/57/21 18/56/22 27/55/22 11/58/21 
f 10/14/1 11/15/1 27/51/1 
f 16/59/4 17/57/21 11/58/21 12/60/4 
f 16/59/19 12/60/19 29/61/19 30/62/19 
f 31/63/4 30/64/4 29/65/4 32/66/4 
f 13/17/1 32/67/1 29/68/1 12/16/1 
f 31/63/20 32/66/20 13/18/20 15/21/20 
f 31/69/6 15/23/6 16/22/6 30/70/6 
f 26/71/4 28/72/4 24/73/4 25/74/4 
f 33/75/23 34/76/24 35/77/25 36/78/26 
f 36/78/26 35/77/25 37/79/27 38/80/28 
f 38/80/28 37/79/27 39/81/29 
f 40/82/30 39/81/29 37/79/27 41/83/31 
f 41/84/31 37/79/27 35/77/25 42/85/32 
f 43/86/33 42/85/32 35/77/25 34/76/24 
f 43/87/5 34/88/5 44/89/5 45/90/5 
f 46/91/34 45/92/35 44/93/36 47/94/37 
f 47/94/37 44/93/36 48/95/38 49/96/39 
f 49/96/39 48/95/38 50/97/40 51/98/41 
f 51/98/41 50/97/40 52/99/42 53/100/43 
f 54/101/44 53/100/43 52/99/42 55/102/45 
f 56/103/5 55/104/5 52/105/5 57/106/5 
f 57/106/5 52/105/5 50/107/5 58/108/5 
f 58/108/5 50/107/5 48/109/5 33/110/5 
f 34/88/5 33/110/5 48/109/5 44/89/5 
f 59/111/46 58/112/47 33/75/23 36/78/26 
f 60/113/48 59/111/46 36/78/26 38/80/28 
f 40/114/30 60/115/48 38/80/28 39/81/29 
f 60/115/48 40/114/30 61/116/49 62/117/50 
f 63/118/51 62/117/50 61/116/49 64/119/52 
f 65/120/53 64/121/52 61/122/49 66/123/54 
f 41/83/31 66/123/54 61/122/49 40/82/30 
f 66/124/54 41/84/31 42/85/32 67/125/55 
f 68/126/56 67/127/55 42/85/32 43/86/33 
f 68/128/5 43/87/5 45/90/5 69/129/5 
f 70/130/57 69/131/58 45/92/35 46/91/34 
f 71/132/59 70/133/57 46/134/34 72/135/60 
f 72/135/60 46/134/34 47/94/37 73/136/61 
f 73/136/61 47/94/37 49/96/39 74/137/62 
f 75/138/63 74/137/62 49/96/39 51/139/41 
f 76/140/64 75/138/63 51/139/41 53/141/43 
f 76/140/64 53/141/43 54/142/44 77/143/65 
f 63/144/51 77/145/65 54/146/44 78/147/66 
f 78/147/66 54/146/44 55/148/45 56/149/67 
f 79/150/68 78/151/66 56/152/67 57/153/69 
f 79/150/68 57/153/69 58/112/47 59/111/46 
f 62/154/50 79/155/68 59/111/46 60/113/48 
f 78/156/66 79/155/68 62/154/50 63/157/51 
f 63/144/51 64/158/52 80/159/70 77/145/65 
f 64/158/52 65/160/53 81/161/71 80/159/70 
f 71/162/59 82/163/72 80/164/70 81/165/71 
f 71/132/59 81/166/71 83/167/73 70/133/57 
f 70/130/57 83/168/73 84/169/74 69/131/58 
f 69/129/5 84/170/5 85/171/5 68/128/5 
f 68/126/56 85/172/75 86/173/76 67/127/55 
f 66/124/54 67/125/55 86/174/76 65/175/53 
f 81/161/71 65/160/53 86/176/76 83/177/73 
f 83/177/73 86/176/76 85/178/75 84/179/74 
f 82/163/72 71/162/59 72/135/60 87/180/77 
f 87/180/77 72/135/60 73/136/61 88/181/78 
f 74/137/62 88/181/78 73/136/61 
f 87/180/77 88/181/78 74/137/62 75/138/63 
f 82/182/72 87/180/77 75/138/63 76/183/64 
f 77/184/65 80/185/70 82/182/72 76/183/64 
f 89/186/1 90/187/1 91/188/1 92/189/1 
f 93/190/4 90/191/4 89/192/4 94/193/4 
f 95/194/6 93/195/6 94/196/6 96/197/6 
f 92/198/79 96/199/79 94/193/79 89/192/79 
f 97/200/80 96/199/80 92/198/80 98/201/80 
f 98/202/1 92/189/1 91/188/1 99/203/1 
f 99/204/81 91/205/81 95/206/81 100/207/81 
f 97/208/6 100/209/6 95/194/6 96/197/6 
f 101/210/6 102/211/6 100/209/6 97/208/6 
f 103/212/20 101/213/20 97/200/20 98/201/20 
f 104/214/1 99/203/1 105/215/1 
f 106/216/19 105/217/19 99/204/19 100/207/19 
f 100/209/6 102/211/6 106/218/6 
f 95/206/82 91/205/82 90/191/82 93/190/82 
f 98/202/1 99/203/1 104/214/1 103/219/1 
# 93 polygons - 10 triangles

