# 3ds Max Wavefront OBJ Exporter v0.97b - (c)2007 guruware
# File Created: 31.10.2016 12:27:42

mtllib carBody_hook_f.mtl

#
# object Mesh
#

v  -0.4409 -0.2381 -1.5614
v  -0.4163 -0.2381 -1.5659
v  -0.3772 -0.2381 -1.4512
v  -0.4512 -0.2381 -1.6264
v  -0.4716 -0.2381 -1.6147
v  -0.4716 0.2381 -1.6147
v  -0.4409 0.2381 -1.5614
v  -0.3772 0.2381 -1.4512
v  -0.1173 0.2381 -1.4512
v  -0.1173 -0.2381 -1.4512
v  0.3510 -0.2381 -1.5306
v  0.3916 -0.2381 -1.5306
v  0.4386 -0.2381 -1.5659
v  -0.4163 0.2381 -1.5659
v  0.4386 0.2381 -1.5659
v  0.3916 0.2381 -1.5306
v  0.3510 0.2381 -1.5306
v  0.1765 0.2381 -1.4512
v  -0.4512 0.2381 -1.6264
v  -0.4820 0.1190 -1.6796
v  -0.5023 0.1190 -1.6679
v  -0.4820 -0.1190 -1.6796
v  -0.5023 -0.1190 -1.6679
v  0.1765 0.2381 -1.1926
v  -0.1173 0.2381 -1.1926
v  -0.1173 -0.2381 -1.1926
v  0.1765 -0.2381 -1.4512
v  0.1765 -0.2381 -1.1926
v  0.3916 -0.2381 -1.3543
v  0.3916 0.2381 -1.3543
v  0.4386 0.2381 -1.3543
v  0.4386 -0.2381 -1.3543
v  -0.2919 -0.2116 -1.5218
v  0.3510 -0.2116 -1.5218
v  0.3510 -0.2116 -1.3974
v  -0.2919 -0.2116 -1.3974
v  0.2394 -0.2116 -1.2040
v  -0.1802 -0.2116 -1.2040
v  0.0296 -0.2116 -1.1276
v  0.0296 -0.2018 -1.0891
v  0.2641 -0.2018 -1.1745
v  0.3890 -0.2018 -1.3907
v  0.3890 -0.2018 -1.5218
v  0.3510 0.2116 -1.5218
v  0.3890 0.2018 -1.5218
v  0.3890 0.2018 -1.3907
v  0.3510 0.2116 -1.3974
v  -0.2919 0.2116 -1.5218
v  -0.2919 0.2116 -1.3974
v  -0.3298 0.2018 -1.5218
v  -0.3298 0.2018 -1.3907
v  -0.3575 0.1749 -1.5218
v  -0.3575 0.1749 -1.3858
v  -0.3677 0.1381 -1.3840
v  -0.3677 0.1381 -1.5218
v  -0.3677 -0.1381 -1.5218
v  -0.3575 -0.1749 -1.5218
v  -0.3298 -0.2018 -1.5218
v  -0.3298 -0.2018 -1.3907
v  -0.2050 -0.2018 -1.1745
v  0.0296 -0.1749 -1.0610
v  -0.2231 -0.1749 -1.1529
v  -0.2297 -0.1381 -1.1450
v  0.0296 -0.1381 -1.0506
v  0.2889 -0.1381 -1.1450
v  0.2823 -0.1749 -1.1529
v  0.4167 -0.1749 -1.3858
v  0.4167 -0.1749 -1.5218
v  0.4167 0.1749 -1.5218
v  0.4167 0.1749 -1.3858
v  0.2823 0.1749 -1.1529
v  0.2641 0.2018 -1.1745
v  0.2394 0.2116 -1.2040
v  -0.1802 0.2116 -1.2040
v  -0.2050 0.2018 -1.1745
v  -0.2231 0.1749 -1.1529
v  -0.2297 0.1381 -1.1450
v  -0.3677 -0.1381 -1.3840
v  -0.3575 -0.1749 -1.3858
v  0.0296 0.1381 -1.0506
v  0.2889 0.1381 -1.1450
v  0.0296 0.1749 -1.0610
v  0.4269 0.1381 -1.3840
v  0.4269 0.1381 -1.5218
v  0.4269 -0.1381 -1.5218
v  0.4269 -0.1381 -1.3840
v  0.0296 0.2018 -1.0891
v  0.0296 0.2116 -1.1276
v  0.1965 -0.0647 0.2378
v  -0.1373 -0.0647 0.2378
v  -0.2405 -0.0647 -0.1781
v  0.2997 -0.0647 -0.1781
v  -0.1373 0.0647 0.2378
v  0.1965 0.0647 0.2378
v  -0.2405 0.0647 -0.1781
v  0.2997 0.0647 -0.1781
v  0.1472 0.0647 -0.3233
v  0.1472 -0.0647 -0.3233
v  -0.0880 -0.0647 -0.3233
v  -0.0880 0.0647 -0.3233
v  0.1472 0.0647 -1.0934
v  0.0296 0.0647 -1.0506
v  0.1472 -0.0647 -1.0934
v  0.0296 -0.0647 -1.0506
v  -0.0880 -0.0647 -1.0934
v  -0.0880 0.0647 -1.0934
# 106 vertices

vn 0.0000 -1.0000 -0.0000
vn -0.8660 0.0000 0.5000
vn 0.0000 0.0000 1.0000
vn 0.0000 0.0000 -1.0000
vn 0.0000 1.0000 -0.0000
vn -0.4442 0.4588 -0.7696
vn -0.4859 0.2360 -0.8415
vn -0.4859 -0.2361 -0.8415
vn -0.4442 -0.4588 -0.7696
vn -0.4442 -0.4587 -0.7696
vn 0.8660 0.0000 -0.5000
vn -1.0000 0.0000 -0.0000
vn 1.0000 0.0000 -0.0000
vn 0.2118 0.0000 0.9773
vn 0.4139 0.0000 0.9103
vn -0.1267 -0.9919 -0.0000
vn 0.1267 -0.9919 -0.0000
vn 0.1403 -0.9893 0.0404
vn -0.1403 -0.9893 0.0404
vn 0.0977 -0.9884 0.1164
vn -0.0977 -0.9884 0.1164
vn 0.0000 -0.9884 0.1520
vn 0.0000 -0.8509 0.5253
vn 0.3377 -0.8509 0.4024
vn 0.4985 -0.8559 0.1376
vn 0.4898 -0.8718 -0.0000
vn 0.4985 0.8559 0.1376
vn 0.4898 0.8719 -0.0000
vn 0.1267 0.9919 -0.0000
vn 0.1403 0.9893 0.0403
vn -0.1267 0.9919 -0.0000
vn -0.1403 0.9893 0.0403
vn -0.4898 0.8718 -0.0000
vn -0.4985 0.8559 0.1376
vn -0.8600 0.5102 -0.0000
vn -0.8390 0.4958 0.2241
vn -0.9578 0.1331 0.2548
vn -0.9909 0.1345 -0.0000
vn -0.4985 -0.8559 0.1376
vn -0.4898 -0.8718 -0.0000
vn -0.3377 -0.8509 0.4024
vn -0.0000 -0.4913 0.8710
vn -0.5599 -0.4912 0.6673
vn -0.6371 -0.1326 0.7593
vn -0.0000 -0.1326 0.9912
vn 0.6371 -0.1326 0.7593
vn 0.5599 -0.4912 0.6673
vn 0.8390 -0.4958 0.2241
vn 0.8600 -0.5103 -0.0000
vn 0.8390 0.4958 0.2241
vn 0.8600 0.5102 -0.0000
vn 0.5599 0.4912 0.6673
vn 0.3377 0.8509 0.4024
vn 0.0976 0.9884 0.1164
vn -0.0976 0.9884 0.1164
vn -0.3377 0.8509 0.4024
vn -0.5599 0.4912 0.6673
vn -0.6371 0.1326 0.7593
vn -0.9578 -0.1331 0.2548
vn -0.9909 -0.1345 -0.0000
vn -0.8390 -0.4958 0.2241
vn -0.8600 -0.5103 -0.0000
vn -0.0000 0.1326 0.9912
vn 0.6371 0.1326 0.7593
vn -0.0000 0.4912 0.8710
vn 0.9578 0.1331 0.2548
vn 0.9909 0.1345 -0.0000
vn 0.9909 -0.1345 -0.0000
vn 0.9578 -0.1331 0.2548
vn 0.0000 0.8509 0.5253
vn 0.0000 0.9884 0.1519
vn 0.9706 0.0000 0.2407
vn 0.6894 0.0000 -0.7243
vn -0.6894 0.0000 -0.7244
vn -0.9706 0.0000 0.2407
# 75 vertex normals

vt 0.6184 0.8379 0.0000
vt 0.6200 0.8377 0.0000
vt 0.6223 0.8446 0.0000
vt 0.6179 0.8343 0.0000
vt 0.6167 0.8351 0.0000
vt 0.5118 0.8724 0.0000
vt 0.5118 0.9006 0.0000
vt 0.5082 0.9006 0.0000
vt 0.5082 0.8724 0.0000
vt 0.5007 0.9006 0.0000
vt 0.5007 0.8724 0.0000
vt 0.4854 0.8724 0.0000
vt 0.4854 0.9006 0.0000
vt 0.6376 0.8446 0.0000
vt 0.6650 0.8400 0.0000
vt 0.6675 0.8400 0.0000
vt 0.6702 0.8377 0.0000
vt 0.5585 0.7462 0.0000
vt 0.6087 0.7462 0.0000
vt 0.6087 0.7741 0.0000
vt 0.5585 0.7741 0.0000
vt 0.7652 0.7659 0.0000
vt 0.7680 0.7682 0.0000
vt 0.7178 0.7682 0.0000
vt 0.7627 0.7659 0.0000
vt 0.7523 0.7615 0.0000
vt 0.7353 0.7615 0.0000
vt 0.7200 0.7615 0.0000
vt 0.7163 0.7680 0.0000
vt 0.7157 0.7718 0.0000
vt 0.7146 0.7711 0.0000
vt 0.8971 0.7211 0.0000
vt 0.8971 0.7227 0.0000
vt 0.8893 0.7225 0.0000
vt 0.8893 0.7209 0.0000
vt 0.8753 0.7225 0.0000
vt 0.8753 0.7209 0.0000
vt 0.8674 0.7222 0.0000
vt 0.8675 0.7207 0.0000
vt 0.5155 0.8795 0.0000
vt 0.5155 0.8937 0.0000
vt 0.6127 0.7462 0.0000
vt 0.6161 0.7531 0.0000
vt 0.6161 0.7672 0.0000
vt 0.6127 0.7741 0.0000
vt 0.7523 0.7462 0.0000
vt 0.7353 0.7462 0.0000
vt 0.4705 0.9006 0.0000
vt 0.4705 0.8724 0.0000
vt 0.6376 0.8598 0.0000
vt 0.6548 0.8446 0.0000
vt 0.6548 0.8598 0.0000
vt 0.6558 0.8818 0.0000
vt 0.6558 0.9098 0.0000
vt 0.6408 0.9098 0.0000
vt 0.6408 0.8818 0.0000
vt 0.6295 0.8818 0.0000
vt 0.6295 0.9098 0.0000
vt 0.6271 0.8818 0.0000
vt 0.6271 0.9098 0.0000
vt 0.6167 0.9098 0.0000
vt 0.6167 0.8818 0.0000
vt 0.5459 0.7741 0.0000
vt 0.5432 0.7741 0.0000
vt 0.5432 0.7462 0.0000
vt 0.5459 0.7462 0.0000
vt 0.6702 0.8504 0.0000
vt 0.6675 0.8504 0.0000
vt 0.7680 0.7558 0.0000
vt 0.7652 0.7558 0.0000
vt 0.4143 0.9790 0.0000
vt 0.4143 0.9960 0.0000
vt 0.3863 0.9960 0.0000
vt 0.3863 0.9790 0.0000
vt 0.2856 0.7905 0.0000
vt 0.2480 0.7905 0.0000
vt 0.2480 0.7830 0.0000
vt 0.2856 0.7830 0.0000
vt 0.2545 0.7719 0.0000
vt 0.2791 0.7719 0.0000
vt 0.2668 0.7673 0.0000
vt 0.2668 0.7650 0.0000
vt 0.2530 0.7698 0.0000
vt 0.2530 0.7700 0.0000
vt 0.2457 0.7826 0.0000
vt 0.2457 0.7905 0.0000
vt 0.5455 0.8986 0.0000
vt 0.5478 0.8979 0.0000
vt 0.5478 0.9228 0.0000
vt 0.5455 0.9222 0.0000
vt 0.6188 0.2891 0.0000
vt 0.6188 0.2968 0.0000
vt 0.6165 0.2966 0.0000
vt 0.6165 0.2893 0.0000
vt 0.5786 0.2966 0.0000
vt 0.5786 0.2893 0.0000
vt 0.5765 0.2968 0.0000
vt 0.5765 0.2891 0.0000
vt 0.5742 0.2968 0.0000
vt 0.5742 0.2889 0.0000
vt 0.5719 0.2885 0.0000
vt 0.5719 0.2968 0.0000
vt 0.5899 0.9023 0.0000
vt 0.5899 0.9186 0.0000
vt 0.5891 0.9209 0.0000
vt 0.5891 0.9002 0.0000
vt 0.5876 0.9222 0.0000
vt 0.5876 0.8986 0.0000
vt 0.5853 0.9228 0.0000
vt 0.5853 0.8979 0.0000
vt 0.2879 0.7826 0.0000
vt 0.2879 0.7905 0.0000
vt 0.2806 0.7700 0.0000
vt 0.2668 0.7648 0.0000
vt 0.2806 0.7698 0.0000
vt 0.2670 0.7625 0.0000
vt 0.2819 0.7681 0.0000
vt 0.2829 0.7659 0.0000
vt 0.2676 0.7606 0.0000
vt 0.2507 0.7659 0.0000
vt 0.2660 0.7606 0.0000
vt 0.2666 0.7625 0.0000
vt 0.2517 0.7681 0.0000
vt 0.2513 0.7682 0.0000
vt 0.2434 0.7820 0.0000
vt 0.2434 0.7905 0.0000
vt 0.2434 0.7824 0.0000
vt 0.5437 0.9002 0.0000
vt 0.5437 0.9209 0.0000
vt 0.6211 0.2889 0.0000
vt 0.6211 0.2968 0.0000
vt 0.6131 0.2748 0.0000
vt 0.6211 0.2884 0.0000
vt 0.6115 0.2763 0.0000
vt 0.6100 0.2780 0.0000
vt 0.5855 0.2780 0.0000
vt 0.5839 0.2763 0.0000
vt 0.5822 0.2748 0.0000
vt 0.5744 0.2884 0.0000
vt 0.5721 0.2874 0.0000
vt 0.5803 0.2736 0.0000
vt 0.6734 0.8123 0.0000
vt 0.6734 0.7962 0.0000
vt 0.6895 0.7962 0.0000
vt 0.6895 0.8123 0.0000
vt 0.6977 0.7962 0.0000
vt 0.6977 0.8123 0.0000
vt 0.2902 0.7824 0.0000
vt 0.2925 0.7824 0.0000
vt 0.2925 0.7905 0.0000
vt 0.2902 0.7905 0.0000
vt 0.2823 0.7682 0.0000
vt 0.2902 0.7820 0.0000
vt 0.2921 0.7811 0.0000
vt 0.2842 0.7671 0.0000
vt 0.6571 0.8123 0.0000
vt 0.6571 0.7962 0.0000
vt 0.6410 0.8123 0.0000
vt 0.6410 0.7962 0.0000
vt 0.6129 0.2744 0.0000
vt 0.5979 0.2690 0.0000
vt 0.5985 0.2667 0.0000
vt 0.6138 0.2723 0.0000
vt 0.6150 0.2736 0.0000
vt 0.6230 0.2874 0.0000
vt 0.6234 0.2885 0.0000
vt 0.6234 0.2968 0.0000
vt 0.5432 0.9186 0.0000
vt 0.5432 0.9023 0.0000
vt 0.2411 0.7905 0.0000
vt 0.2411 0.7824 0.0000
vt 0.2415 0.7811 0.0000
vt 0.2496 0.7671 0.0000
vt 0.6248 0.8123 0.0000
vt 0.6248 0.7962 0.0000
vt 0.6167 0.8123 0.0000
vt 0.6167 0.7962 0.0000
vt 0.5977 0.2713 0.0000
vt 0.5977 0.2736 0.0000
vt 0.5975 0.2690 0.0000
vt 0.5826 0.2744 0.0000
vt 0.5816 0.2723 0.0000
vt 0.5968 0.2667 0.0000
vt 0.8945 0.5939 0.0000
vt 0.8945 0.5744 0.0000
vt 0.9188 0.5683 0.0000
vt 0.9188 0.5999 0.0000
vt 0.1025 0.9571 0.0000
vt 0.1025 0.9646 0.0000
vt 0.0829 0.9646 0.0000
vt 0.0829 0.9571 0.0000
vt 0.4106 0.8056 0.0000
vt 0.3863 0.7995 0.0000
vt 0.3863 0.7799 0.0000
vt 0.4106 0.7740 0.0000
vt 0.0578 0.9646 0.0000
vt 0.0578 0.9571 0.0000
vt 0.0454 0.9571 0.0000
vt 0.0454 0.9646 0.0000
vt 0.9274 0.5911 0.0000
vt 0.9274 0.5773 0.0000
vt 0.1400 0.9646 0.0000
vt 0.1277 0.9646 0.0000
vt 0.1277 0.9571 0.0000
vt 0.1400 0.9571 0.0000
vt 0.4192 0.7826 0.0000
vt 0.4192 0.7964 0.0000
vt 0.4645 0.7826 0.0000
vt 0.4618 0.7897 0.0000
vt 0.0000 0.9646 0.0000
vt 0.0002 0.9571 0.0000
vt 0.9701 0.5842 0.0000
vt 0.9726 0.5773 0.0000
vt 0.1852 0.9571 0.0000
vt 0.1852 0.9646 0.0000
vt 0.4645 0.7964 0.0000
vt 0.9726 0.5911 0.0000
# 217 texture coords

g Mesh
usemtl Default
f 1/1/1 2/2/1 3/3/1 
f 4/4/1 2/2/1 1/1/1 5/5/1 
f 6/6/2 5/7/2 1/8/2 7/9/2 
f 7/9/2 1/8/2 3/10/2 8/11/2 
f 9/12/3 8/11/3 3/10/3 10/13/3 
f 10/14/1 3/3/1 2/2/1 11/15/1 
f 12/16/1 11/15/1 2/2/1 13/17/1 
f 13/18/4 2/19/4 14/20/4 15/21/4 
f 16/22/5 15/23/5 14/24/5 17/25/5 
f 14/24/5 18/26/5 17/25/5 
f 14/24/5 9/27/5 18/26/5 
f 14/24/5 8/28/5 9/27/5 
f 7/29/5 8/28/5 14/24/5 
f 7/29/5 14/24/5 19/30/5 6/31/5 
f 6/32/6 19/33/6 20/34/7 21/35/7 
f 21/35/7 20/34/7 22/36/8 23/37/8 
f 23/37/8 22/36/8 4/38/9 5/39/10 
f 21/40/2 23/41/2 5/7/2 6/6/2 
f 4/42/11 22/43/11 20/44/11 19/45/11 
f 14/20/11 2/19/11 4/42/11 19/45/11 
f 24/46/5 18/26/5 9/27/5 25/47/5 
f 26/48/12 25/49/12 9/12/12 10/13/12 
f 26/50/1 10/14/1 27/51/1 28/52/1 
f 24/53/13 28/54/13 27/55/13 18/56/13 
f 17/57/14 18/56/15 27/55/15 11/58/14 
f 10/14/1 11/15/1 27/51/1 
f 16/59/3 17/57/14 11/58/14 12/60/3 
f 16/59/12 12/60/12 29/61/12 30/62/12 
f 31/63/3 30/64/3 29/65/3 32/66/3 
f 13/17/1 32/67/1 29/68/1 12/16/1 
f 31/63/13 32/66/13 13/18/13 15/21/13 
f 31/69/5 15/23/5 16/22/5 30/70/5 
f 26/71/3 28/72/3 24/73/3 25/74/3 
f 33/75/16 34/76/17 35/77/18 36/78/19 
f 36/78/19 35/77/18 37/79/20 38/80/21 
f 38/80/21 37/79/20 39/81/22 
f 40/82/23 39/81/22 37/79/20 41/83/24 
f 41/84/24 37/79/20 35/77/18 42/85/25 
f 43/86/26 42/85/25 35/77/18 34/76/17 
f 43/87/4 34/88/4 44/89/4 45/90/4 
f 46/91/27 45/92/28 44/93/29 47/94/30 
f 47/94/30 44/93/29 48/95/31 49/96/32 
f 49/96/32 48/95/31 50/97/33 51/98/34 
f 51/98/34 50/97/33 52/99/35 53/100/36 
f 54/101/37 53/100/36 52/99/35 55/102/38 
f 56/103/4 55/104/4 52/105/4 57/106/4 
f 57/106/4 52/105/4 50/107/4 58/108/4 
f 58/108/4 50/107/4 48/109/4 33/110/4 
f 34/88/4 33/110/4 48/109/4 44/89/4 
f 59/111/39 58/112/40 33/75/16 36/78/19 
f 60/113/41 59/111/39 36/78/19 38/80/21 
f 40/114/23 60/115/41 38/80/21 39/81/22 
f 60/115/41 40/114/23 61/116/42 62/117/43 
f 63/118/44 62/117/43 61/116/42 64/119/45 
f 65/120/46 64/121/45 61/122/42 66/123/47 
f 41/83/24 66/123/47 61/122/42 40/82/23 
f 66/124/47 41/84/24 42/85/25 67/125/48 
f 68/126/49 67/127/48 42/85/25 43/86/26 
f 68/128/4 43/87/4 45/90/4 69/129/4 
f 70/130/50 69/131/51 45/92/28 46/91/27 
f 71/132/52 70/133/50 46/91/27 72/134/53 
f 72/134/53 46/91/27 47/94/30 73/135/54 
f 73/135/54 47/94/30 49/96/32 74/136/55 
f 75/137/56 74/136/55 49/96/32 51/98/34 
f 76/138/57 75/137/56 51/98/34 53/139/36 
f 76/138/57 53/139/36 54/140/37 77/141/58 
f 63/142/44 77/143/58 54/144/37 78/145/59 
f 78/145/59 54/144/37 55/146/38 56/147/60 
f 79/148/61 78/149/59 56/150/60 57/151/62 
f 79/148/61 57/151/62 58/112/40 59/111/39 
f 62/152/43 79/153/61 59/111/39 60/113/41 
f 78/154/59 79/153/61 62/152/43 63/155/44 
f 63/142/44 64/156/45 80/157/63 77/143/58 
f 64/156/45 65/158/46 81/159/64 80/157/63 
f 71/160/52 82/161/65 80/162/63 81/163/64 
f 71/132/52 81/164/64 83/165/66 70/133/50 
f 70/130/50 83/166/66 84/167/67 69/131/51 
f 69/129/4 84/168/4 85/169/4 68/128/4 
f 68/126/49 85/170/68 86/171/69 67/127/48 
f 66/124/47 67/125/48 86/172/69 65/173/46 
f 81/159/64 65/158/46 86/174/69 83/175/66 
f 83/175/66 86/174/69 85/176/68 84/177/67 
f 82/161/65 71/160/52 72/134/53 87/178/70 
f 87/178/70 72/134/53 73/135/54 88/179/71 
f 74/136/55 88/179/71 73/135/54 
f 87/178/70 88/179/71 74/136/55 75/137/56 
f 82/180/65 87/178/70 75/137/56 76/181/57 
f 77/182/58 80/183/63 82/180/65 76/181/57 
f 89/184/1 90/185/1 91/186/1 92/187/1 
f 93/188/3 90/189/3 89/190/3 94/191/3 
f 95/192/5 93/193/5 94/194/5 96/195/5 
f 92/196/72 96/197/72 94/191/72 89/190/72 
f 97/198/73 96/197/73 92/196/73 98/199/73 
f 98/200/1 92/187/1 91/186/1 99/201/1 
f 99/202/74 91/203/74 95/204/74 100/205/74 
f 97/206/5 100/207/5 95/192/5 96/195/5 
f 101/208/5 102/209/5 100/207/5 97/206/5 
f 103/210/13 101/211/13 97/198/13 98/199/13 
f 104/212/1 99/201/1 105/213/1 
f 106/214/12 105/215/12 99/202/12 100/205/12 
f 100/207/5 102/209/5 106/216/5 
f 95/204/75 91/203/75 90/189/75 93/188/75 
f 98/200/1 99/201/1 104/212/1 103/217/1 
# 93 polygons - 10 triangles

