# 3ds Max Wavefront OBJ Exporter v0.97b - (c)2007 guruware
# File Created: 06.11.2016 15:03:16

mtllib flatCarkit_2.mtl

#
# object Mesh
#

v  -3.2730 0.0000 -3.3590
v  -3.4330 0.0000 -3.3590
v  -3.4330 4.2000 -3.3590
v  -3.2730 4.2000 -3.3590
v  -3.4330 4.2000 3.3490
v  -3.2730 4.2000 -3.1990
v  -3.2730 4.2000 3.3490
v  -3.2730 3.6000 3.3210
v  -3.2730 3.6000 3.3490
v  -3.4330 3.6000 3.3490
v  -3.4330 3.6000 3.3210
v  -3.4330 3.0000 3.3210
v  -3.4330 2.4000 3.3320
v  -3.4330 3.0000 3.3320
v  -3.2730 3.0000 3.3320
v  -3.2730 2.4000 3.3320
v  -3.2730 2.4000 3.3500
v  -3.4330 2.4000 3.3500
v  -3.4330 1.8000 3.3500
v  -3.4330 1.8000 3.3200
v  -3.4330 1.2000 3.3200
v  -3.4330 0.6000 3.3320
v  -3.4330 0.6000 3.3590
v  -3.4330 1.2000 3.3590
v  -3.2730 1.2000 3.3590
v  -3.2730 0.6000 3.3590
v  -3.2730 0.6000 3.3320
v  -3.4330 0.0000 3.3320
v  -3.2730 0.0000 3.3320
v  -3.2730 0.0000 -3.1990
v  -3.2730 1.2000 3.3200
v  -3.2730 1.8000 3.3200
v  -3.2730 1.8000 3.3500
v  -3.2730 3.0000 3.3210
v  -3.2730 3.0000 3.3200
v  3.4180 2.4000 -3.1990
v  3.4180 3.0000 -3.1990
v  3.4330 3.0000 -3.1990
v  3.4330 2.4000 -3.1990
v  3.4330 2.4000 -3.3590
v  3.4180 2.4000 -3.3590
v  3.4180 1.8000 -3.3590
v  3.4180 1.8000 -3.1990
v  3.3910 1.8000 -3.1990
v  3.3910 1.2000 -3.1990
v  3.4040 0.6000 -3.1990
v  3.4040 0.0000 -3.1990
v  3.4040 0.0000 -3.3590
v  3.4040 0.6000 -3.3590
v  3.3910 1.2000 -3.3590
v  3.4180 1.2000 -3.3590
v  3.4180 0.6000 -3.3590
v  3.4180 1.2000 -3.1990
v  3.3910 1.8000 -3.3590
v  3.4180 3.0000 -3.3590
v  3.4030 3.6000 -3.3590
v  3.4030 4.2000 -3.3590
v  3.4030 4.2000 -3.1990
v  3.4030 3.6000 -3.1990
v  3.4180 3.6000 -3.1990
v  3.4180 3.6000 -3.3590
v  3.4330 3.0000 -3.3590
v  3.4180 0.6000 -3.1990
v  -3.2730 0.0000 3.2950
v  -3.0430 0.0000 3.2950
v  -3.0430 4.1710 3.2950
v  -3.2730 4.1710 3.2950
v  -3.2730 4.1710 3.0650
v  -3.0430 4.1710 3.0650
v  -3.0430 0.0000 3.0650
v  -3.2730 0.0000 3.0650
v  -3.0430 4.1710 -2.9690
v  -3.0430 0.0000 -2.9690
v  -3.0430 0.0000 -3.1990
v  -3.0430 4.1710 -3.1990
v  -3.2730 4.1710 -3.1990
v  -3.2730 4.1710 -2.9690
v  -3.2730 0.0000 -2.9690
v  3.1370 4.1710 -3.1990
v  3.1370 4.1710 -2.9690
v  3.3670 4.1710 -2.9690
v  3.3670 4.1710 -3.1990
v  3.3670 0.0000 -3.1990
v  3.3670 0.0000 -2.9690
v  3.1370 0.0000 -2.9690
v  3.1370 0.0000 -3.1990
# 86 vertices

vn 0.0000 0.0000 -1.0000
vn 0.0000 1.0000 -0.0000
vn 1.0000 0.0000 -0.0000
vn 0.0000 0.0000 1.0000
vn -1.0000 0.0000 -0.0000
vn 0.0000 -1.0000 -0.0000
# 6 vertex normals

vt 0.2550 0.4747 0.0000
vt 0.2493 0.4747 0.0000
vt 0.2493 0.3250 0.0000
vt 0.2550 0.3250 0.0000
vt 0.7546 0.2282 0.0000
vt 0.7546 0.2225 0.0000
vt 0.9937 0.2225 0.0000
vt 0.7603 0.2282 0.0000
vt 0.9937 0.2282 0.0000
vt 0.5126 0.4533 0.0000
vt 0.7450 0.4747 0.0000
vt 0.5116 0.4747 0.0000
vt 0.5116 0.4533 0.0000
vt 0.7760 0.2970 0.0000
vt 0.7760 0.3027 0.0000
vt 0.7546 0.3027 0.0000
vt 0.7546 0.2970 0.0000
vt 0.0102 0.3464 0.0000
vt 0.0102 0.3250 0.0000
vt 0.0112 0.3464 0.0000
vt 0.0112 0.3678 0.0000
vt 0.0108 0.3892 0.0000
vt 0.0108 0.3678 0.0000
vt 0.7988 0.3027 0.0000
vt 0.7987 0.2970 0.0000
vt 0.8201 0.2970 0.0000
vt 0.8202 0.3027 0.0000
vt 0.8208 0.3027 0.0000
vt 0.8208 0.2970 0.0000
vt 0.0102 0.4106 0.0000
vt 0.0102 0.3892 0.0000
vt 0.0112 0.4106 0.0000
vt 0.0112 0.4320 0.0000
vt 0.0108 0.4534 0.0000
vt 0.0098 0.4534 0.0000
vt 0.0098 0.4320 0.0000
vt 0.8661 0.3027 0.0000
vt 0.8660 0.2970 0.0000
vt 0.8874 0.2970 0.0000
vt 0.8874 0.3027 0.0000
vt 0.8884 0.3027 0.0000
vt 0.8884 0.2970 0.0000
vt 0.9097 0.2970 0.0000
vt 0.9098 0.3027 0.0000
vt 0.7450 0.3250 0.0000
vt 0.5122 0.3463 0.0000
vt 0.5122 0.3249 0.0000
vt 0.5126 0.3677 0.0000
vt 0.5112 0.3677 0.0000
vt 0.5112 0.3463 0.0000
vt 0.8647 0.3027 0.0000
vt 0.8646 0.2970 0.0000
vt 0.8433 0.3027 0.0000
vt 0.8432 0.2970 0.0000
vt 0.8422 0.2970 0.0000
vt 0.8422 0.3027 0.0000
vt 0.5116 0.4105 0.0000
vt 0.5116 0.3891 0.0000
vt 0.5126 0.3891 0.0000
vt 0.5122 0.4105 0.0000
vt 0.5122 0.4319 0.0000
vt 0.5126 0.4319 0.0000
vt 0.7500 0.4747 0.0000
vt 0.7500 0.3250 0.0000
vt 0.9885 0.4105 0.0000
vt 0.9885 0.4319 0.0000
vt 0.9890 0.4319 0.0000
vt 0.9890 0.4105 0.0000
vt 0.8199 0.3151 0.0000
vt 0.8198 0.3094 0.0000
vt 0.8203 0.3094 0.0000
vt 0.8204 0.3151 0.0000
vt 0.8418 0.3151 0.0000
vt 0.8417 0.3094 0.0000
vt 0.9875 0.3891 0.0000
vt 0.9885 0.3891 0.0000
vt 0.9875 0.3677 0.0000
vt 0.9880 0.3463 0.0000
vt 0.9880 0.3249 0.0000
vt 0.8869 0.3094 0.0000
vt 0.9083 0.3094 0.0000
vt 0.9084 0.3151 0.0000
vt 0.8870 0.3151 0.0000
vt 0.2620 0.3249 0.0000
vt 0.5000 0.3250 0.0000
vt 0.2620 0.3463 0.0000
vt 0.2625 0.3677 0.0000
vt 0.2615 0.3677 0.0000
vt 0.2615 0.3463 0.0000
vt 0.8650 0.3094 0.0000
vt 0.8651 0.3151 0.0000
vt 0.8642 0.3151 0.0000
vt 0.8641 0.3094 0.0000
vt 0.8427 0.3094 0.0000
vt 0.8428 0.3151 0.0000
vt 0.2625 0.3891 0.0000
vt 0.2615 0.4105 0.0000
vt 0.2615 0.3891 0.0000
vt 0.5000 0.4747 0.0000
vt 0.2615 0.4319 0.0000
vt 0.2620 0.4533 0.0000
vt 0.2620 0.4747 0.0000
vt 0.7760 0.3151 0.0000
vt 0.7547 0.3151 0.0000
vt 0.7546 0.3094 0.0000
vt 0.7760 0.3094 0.0000
vt 0.9879 0.4533 0.0000
vt 0.9880 0.4747 0.0000
vt 0.9885 0.4533 0.0000
vt 0.7765 0.3094 0.0000
vt 0.7979 0.3094 0.0000
vt 0.7980 0.3151 0.0000
vt 0.7766 0.3151 0.0000
vt 0.2615 0.4533 0.0000
vt 0.7984 0.3094 0.0000
vt 0.7985 0.3151 0.0000
vt 0.2610 0.4319 0.0000
vt 0.2610 0.4105 0.0000
vt 0.7546 0.2406 0.0000
vt 0.7546 0.2349 0.0000
vt 0.9926 0.2349 0.0000
vt 0.9926 0.2406 0.0000
vt 0.9885 0.3677 0.0000
vt 0.9885 0.3463 0.0000
vt 0.8865 0.3151 0.0000
vt 0.8864 0.3094 0.0000
vt 0.7983 0.2970 0.0000
vt 0.7984 0.3027 0.0000
vt 0.7770 0.3027 0.0000
vt 0.7770 0.2970 0.0000
vt 0.0108 0.4748 0.0000
vt 0.7546 0.0945 0.0000
vt 0.7546 0.0863 0.0000
vt 0.9033 0.0863 0.0000
vt 0.9033 0.0945 0.0000
vt 0.9114 0.0945 0.0000
vt 0.9114 0.0863 0.0000
vt 0.7546 0.0781 0.0000
vt 0.9033 0.0781 0.0000
vt 0.9033 0.0699 0.0000
vt 0.7546 0.0699 0.0000
vt 0.7628 0.1952 0.0000
vt 0.9114 0.1952 0.0000
vt 0.9114 0.2034 0.0000
vt 0.7628 0.2034 0.0000
vt 0.7546 0.1952 0.0000
vt 0.7546 0.1870 0.0000
vt 0.7628 0.1870 0.0000
vt 0.9114 0.1870 0.0000
vt 0.7546 0.1407 0.0000
vt 0.7628 0.1407 0.0000
vt 0.7628 0.1489 0.0000
vt 0.7546 0.1489 0.0000
vt 0.9115 0.1571 0.0000
vt 0.7628 0.1571 0.0000
vt 0.9115 0.1489 0.0000
vt 0.9115 0.1407 0.0000
vt 0.7628 0.1325 0.0000
vt 0.9115 0.1325 0.0000
# 159 texture coords

g Mesh
usemtl default
f 1/1/1 2/2/1 3/3/1 4/4/1 
f 4/5/2 3/6/2 5/7/2 6/8/2 
f 7/9/2 6/8/2 5/7/2 
f 8/10/3 6/11/3 7/12/3 9/13/3 
f 10/14/4 9/15/4 7/16/4 5/17/4 
f 10/18/5 5/19/5 3/3/5 11/20/5 
f 3/3/5 12/21/5 11/20/5 
f 12/21/5 3/3/5 2/2/5 13/22/5 
f 12/21/5 13/22/5 14/23/5 
f 15/24/4 14/25/4 13/26/4 16/27/4 
f 17/28/2 16/27/2 13/26/2 18/29/2 
f 19/30/5 18/31/5 13/22/5 20/32/5 
f 20/32/5 13/22/5 2/2/5 
f 2/2/5 21/33/5 20/32/5 
f 21/33/5 2/2/5 22/34/5 23/35/5 
f 21/33/5 23/35/5 24/36/5 
f 25/37/4 24/38/4 23/39/4 26/40/4 
f 27/41/6 26/40/6 23/39/6 22/42/6 
f 27/41/4 22/42/4 28/43/4 29/44/4 
f 30/45/3 27/46/3 29/47/3 
f 27/46/3 30/45/3 31/48/3 25/49/3 
f 27/46/3 25/49/3 26/50/3 
f 25/37/2 31/51/2 21/52/2 24/38/2 
f 21/52/4 31/51/4 32/53/4 20/54/4 
f 19/55/6 20/54/6 32/53/6 33/56/6 
f 17/57/3 33/58/3 32/59/3 16/60/3 
f 16/60/3 32/59/3 30/45/3 
f 30/45/3 32/59/3 31/48/3 
f 15/61/3 16/60/3 30/45/3 34/62/3 
f 6/11/3 35/62/3 34/62/3 30/45/3 
f 6/63/4 30/64/4 36/65/4 37/66/4 
f 38/67/4 37/66/4 36/65/4 39/68/4 
f 40/69/6 39/70/6 36/71/6 41/72/6 
f 42/73/3 41/72/3 36/71/3 43/74/3 
f 36/65/4 44/75/4 43/76/4 
f 36/65/4 30/64/4 44/75/4 
f 44/75/4 30/64/4 45/77/4 
f 45/77/4 30/64/4 46/78/4 
f 46/78/4 30/64/4 47/79/4 
f 46/80/3 47/81/3 48/82/3 49/83/3 
f 48/84/1 1/85/1 49/86/1 
f 50/87/1 49/86/1 1/85/1 
f 51/88/1 52/89/1 49/86/1 50/87/1 
f 53/90/2 51/91/2 50/92/2 45/93/2 
f 44/94/3 45/93/3 50/92/3 54/95/3 
f 54/96/1 50/87/1 1/85/1 
f 54/96/1 1/85/1 41/97/1 42/98/1 
f 44/94/6 54/95/6 42/73/6 43/74/6 
f 41/97/1 1/85/1 4/99/1 55/100/1 
f 4/99/1 56/101/1 55/100/1 
f 57/102/1 56/101/1 4/99/1 
f 56/103/3 57/104/3 58/105/3 59/106/3 
f 6/63/4 59/107/4 58/108/4 
f 6/63/4 37/66/4 59/107/4 
f 59/107/4 37/66/4 60/109/4 
f 60/110/3 37/111/3 55/112/3 61/113/3 
f 61/114/1 55/100/1 56/101/1 
f 60/110/2 61/113/2 56/103/2 59/106/2 
f 55/112/2 37/111/2 38/115/2 62/116/2 
f 40/69/3 62/116/3 38/115/3 39/70/3 
f 55/100/1 62/117/1 40/118/1 41/97/1 
f 4/119/2 6/120/2 58/121/2 57/122/2 
f 53/123/4 45/77/4 46/78/4 63/124/4 
f 52/125/6 63/126/6 46/80/6 49/83/6 
f 53/90/3 63/126/3 52/125/3 51/91/3 
f 35/62/3 6/11/3 8/10/3 34/62/3 
f 12/127/4 34/128/4 8/129/4 11/130/4 
f 10/14/6 11/130/6 8/129/6 9/15/6 
f 15/24/2 34/128/2 12/127/2 14/25/2 
f 19/55/4 33/56/4 17/28/4 18/29/4 
f 2/2/5 28/131/5 22/34/5 
f 64/132/4 65/133/4 66/134/4 67/135/4 
f 68/136/2 67/135/2 66/134/2 69/137/2 
f 70/138/3 69/139/3 66/134/3 65/133/3 
f 68/140/1 69/139/1 70/138/1 71/141/1 
f 72/142/3 73/143/3 74/144/3 75/145/3 
f 72/142/2 75/146/2 76/147/2 77/148/2 
f 72/142/4 77/148/4 78/149/4 73/143/4 
f 79/150/2 80/151/2 81/152/2 82/153/2 
f 83/154/3 82/155/3 81/152/3 84/156/3 
f 85/157/4 84/156/4 81/152/4 80/151/4 
f 85/157/5 80/151/5 79/158/5 86/159/5 
# 57 polygons - 25 triangles

