# 3ds Max Wavefront OBJ Exporter v0.97b - (c)2007 guruware
# File Created: 06.11.2016 14:56:42

mtllib flatCarkit_3-3.mtl

#
# object Mesh
#

v  -0.2001 0.0000 0.2200
v  0.2399 0.0000 0.2200
v  0.2399 0.4400 0.2200
v  -0.2001 0.4400 0.2200
v  -0.2001 0.0000 -0.2200
v  0.2399 0.0000 -0.2200
v  -0.2001 0.4400 -0.2200
v  0.2399 0.4400 -0.2200
v  -0.2001 0.2660 0.2200
v  -0.2001 0.2660 -0.2200
v  -0.2399 0.2430 -0.2598
v  -0.2399 0.2430 0.2598
v  -0.2399 0.1970 -0.2598
v  -0.2399 0.1970 0.2598
v  0.2399 0.2430 -0.2598
v  0.2399 0.1970 -0.2598
v  0.2399 0.2660 -0.2200
v  0.2399 0.1740 -0.2200
v  -0.2001 0.1740 -0.2200
v  -0.2001 0.1740 0.2200
v  0.2399 0.1970 0.2598
v  0.2399 0.2430 0.2598
v  0.2399 0.1740 0.2200
v  0.2399 0.2660 0.2200
v  0.1979 0.4400 -0.1892
v  -0.1805 0.4400 -0.1892
v  -0.1805 4.1750 -0.1892
v  0.1979 4.1750 -0.1892
v  -0.1805 4.1750 0.1892
v  0.1979 4.1750 0.1892
v  -0.1805 0.4400 0.1892
v  0.1979 0.4400 0.1892
# 32 vertices

vn 0.0000 0.0000 1.0000
vn 0.0000 -1.0000 -0.0000
vn -1.0000 0.0000 -0.0000
vn 0.0000 0.0000 -1.0000
vn 0.0000 1.0000 -0.0000
vn -0.2673 0.9258 0.2673
vn -0.2673 0.9258 -0.2673
vn 0.0000 0.8660 -0.5000
vn 0.0000 -0.8660 -0.5000
vn -0.2673 -0.9258 -0.2673
vn -0.2673 -0.9258 0.2673
vn 0.0000 -0.8660 0.5000
vn 0.0000 0.8660 0.5000
vn 1.0000 0.0000 -0.0000
# 14 vertex normals

vt 0.3080 0.8811 0.0000
vt 0.2738 0.8811 0.0000
vt 0.2738 0.8468 0.0000
vt 0.3080 0.8468 0.0000
vt 0.3422 0.8811 0.0000
vt 0.3422 0.9153 0.0000
vt 0.3080 0.9153 0.0000
vt 0.3422 0.8468 0.0000
vt 0.3764 0.8468 0.0000
vt 0.3764 0.8811 0.0000
vt 0.3080 0.8126 0.0000
vt 0.3422 0.8126 0.0000
vt 0.8952 0.8517 0.0000
vt 0.8182 0.8517 0.0000
vt 0.8112 0.8436 0.0000
vt 0.9022 0.8436 0.0000
vt 0.8112 0.8356 0.0000
vt 0.9022 0.8356 0.0000
vt 0.7272 0.8436 0.0000
vt 0.7272 0.8356 0.0000
vt 0.8042 0.8517 0.0000
vt 0.7272 0.8517 0.0000
vt 0.7272 0.8275 0.0000
vt 0.8042 0.8275 0.0000
vt 0.8182 0.8275 0.0000
vt 0.8952 0.8275 0.0000
vt 0.9862 0.8356 0.0000
vt 0.9862 0.8436 0.0000
vt 0.9092 0.8275 0.0000
vt 0.9862 0.8275 0.0000
vt 0.9862 0.8517 0.0000
vt 0.9092 0.8517 0.0000
vt 0.4185 0.8080 0.0000
vt 0.3891 0.8080 0.0000
vt 0.3891 0.5176 0.0000
vt 0.4185 0.5176 0.0000
vt 0.4186 0.4882 0.0000
vt 0.4480 0.4882 0.0000
vt 0.4480 0.5176 0.0000
vt 0.5068 0.5176 0.0000
vt 0.5068 0.8080 0.0000
vt 0.4774 0.8080 0.0000
vt 0.4774 0.5176 0.0000
vt 0.4480 0.8080 0.0000
# 44 texture coords

g Mesh
usemtl Metal
f 1/1/1 2/2/1 3/3/1 4/4/1 
f 1/1/2 5/5/2 6/6/2 2/7/2 
f 1/1/3 4/4/3 7/8/3 5/5/3 
f 7/8/4 8/9/4 6/10/4 5/5/4 
f 7/8/5 4/4/5 3/11/5 8/12/5 
f 9/13/6 10/14/7 11/15/7 12/16/6 
f 11/15/3 13/17/3 14/18/3 12/16/3 
f 11/15/4 15/19/4 16/20/4 13/17/4 
f 11/15/7 10/21/7 17/22/8 15/19/8 
f 16/20/9 18/23/9 19/24/10 13/17/10 
f 19/25/10 20/26/11 14/18/11 13/17/10 
f 14/18/1 21/27/1 22/28/1 12/16/1 
f 14/18/11 20/29/11 23/30/12 21/27/12 
f 22/28/13 24/31/13 9/32/6 12/16/6 
usemtl Wood
f 25/33/4 26/34/4 27/35/4 28/36/4 
f 27/37/5 29/38/5 30/39/5 28/36/5 
f 27/40/3 26/41/3 31/42/3 29/43/3 
f 31/42/1 32/44/1 30/39/1 29/43/1 
f 30/39/14 32/44/14 25/33/14 28/36/14 
# 19 polygons

