# 3ds Max Wavefront OBJ Exporter v0.97b - (c)2007 guruware
# File Created: 06.11.2016 15:54:40

mtllib flatCarkit_4-1-1.mtl

#
# object Mesh
#

v  0.1000 0.0000 -4.0914
v  0.1000 0.0000 4.0914
v  -0.1000 0.0000 4.0914
v  -0.1000 0.0000 -4.0914
v  -0.1000 0.7000 4.0914
v  -0.1000 0.7000 -4.0914
v  0.1000 0.7000 -4.0914
v  0.1000 0.7000 4.0914
# 8 vertices

vn 0.0000 -1.0000 -0.0000
vn -1.0000 0.0000 -0.0000
vn 0.0000 1.0000 -0.0000
vn 0.0000 0.0000 1.0000
vn 1.0000 0.0000 -0.0000
vn 0.0000 0.0000 -1.0000
# 6 vertex normals

vt 0.6874 0.4996 0.0000
vt 0.9437 0.4996 0.0000
vt 0.9437 0.5059 0.0000
vt 0.6874 0.5058 0.0000
vt 0.6874 0.4495 0.0000
vt 0.9437 0.4495 0.0000
vt 0.9437 0.4714 0.0000
vt 0.6874 0.4714 0.0000
vt 0.6874 0.4777 0.0000
vt 0.9437 0.4777 0.0000
vt 0.9500 0.4777 0.0000
vt 0.9500 0.4996 0.0000
vt 0.6812 0.4996 0.0000
vt 0.6812 0.4777 0.0000
# 14 texture coords

g Mesh
usemtl default
f 1/1/1 2/2/1 3/3/1 4/4/1 
f 4/5/2 3/6/2 5/7/2 6/8/2 
f 7/9/3 6/8/3 5/7/3 8/10/3 
f 2/2/4 8/10/4 5/11/4 3/12/4 
f 7/9/5 8/10/5 2/2/5 1/1/5 
f 7/9/6 1/1/6 4/13/6 6/14/6 
# 6 polygons

