# 3ds Max Wavefront OBJ Exporter v0.97b - (c)2007 guruware
# File Created: 12.11.2016 11:38:17

mtllib pipeLong_1.mtl

#
# object Mesh
#

v  -0.0000 -0.4286 -15.5300
v  -0.0000 -0.5000 -15.5300
v  -0.1913 -0.4619 -15.5300
v  -0.1640 -0.3960 -15.5300
v  -0.3536 -0.3536 -15.5300
v  -0.3031 -0.3031 -15.5300
v  -0.4619 -0.1913 -15.5300
v  -0.3960 -0.1640 -15.5300
v  -0.5000 0.0000 -15.5300
v  -0.4286 0.0000 -15.5300
v  -0.4619 0.1913 -15.5300
v  -0.3960 0.1640 -15.5300
v  -0.3031 0.3031 -15.5300
v  -0.3536 0.3536 -15.5300
v  -0.4619 0.1913 15.5300
v  -0.3536 0.3536 15.5300
v  -0.3031 0.3031 15.5300
v  -0.3960 0.1640 15.5300
v  -0.5000 0.0000 15.5300
v  -0.4286 0.0000 15.5300
v  -0.3960 -0.1640 15.5300
v  -0.4619 -0.1913 15.5300
v  -0.3536 -0.3536 15.5300
v  -0.1913 -0.4619 15.5300
v  -0.0000 -0.5000 15.5300
v  0.1913 -0.4619 -15.5300
v  0.1913 -0.4619 15.5300
v  0.3536 -0.3536 -15.5300
v  0.3536 -0.3536 15.5300
v  0.4619 -0.1913 15.5300
v  0.4619 -0.1913 -15.5300
v  0.3031 -0.3031 -15.5300
v  0.3960 -0.1640 -15.5300
v  0.3031 -0.3031 15.5300
v  0.3960 -0.1640 15.5300
v  0.1640 -0.3960 15.5300
v  -0.0000 -0.4286 15.5300
v  -0.1640 -0.3960 15.5300
v  0.1640 -0.3960 -15.5300
v  -0.3031 -0.3031 15.5300
v  -0.1640 0.3960 -15.5300
v  -0.1640 0.3960 15.5300
v  -0.0000 0.4286 -15.5300
v  -0.0000 0.4286 15.5300
v  0.1640 0.3960 -15.5300
v  0.1640 0.3960 15.5300
v  0.3031 0.3031 -15.5300
v  0.3031 0.3031 15.5300
v  0.3960 0.1640 15.5300
v  0.3960 0.1640 -15.5300
v  0.4619 0.1913 -15.5300
v  0.3536 0.3536 -15.5300
v  0.1913 0.4619 -15.5300
v  -0.0000 0.5000 -15.5300
v  -0.1913 0.4619 -15.5300
v  -0.1913 0.4619 15.5300
v  -0.0000 0.5000 15.5300
v  0.1913 0.4619 15.5300
v  0.3536 0.3536 15.5300
v  0.4619 0.1913 15.5300
v  0.4286 0.0000 15.5300
v  0.5000 0.0000 15.5300
v  0.5000 0.0000 -15.5300
v  0.4286 0.0000 -15.5300
# 64 vertices

vn 0.0000 0.0000 -1.0000
vn -0.7071 0.7071 -0.0000
vn -0.9239 0.3827 -0.0000
vn 0.0000 0.0000 1.0000
vn -0.9239 -0.3827 -0.0000
vn -1.0000 0.0000 -0.0000
vn -0.7071 -0.7071 -0.0000
vn -0.3827 -0.9239 -0.0000
vn -0.0000 -1.0000 -0.0000
vn 0.3827 -0.9239 -0.0000
vn 0.7071 -0.7071 -0.0000
vn 0.9239 -0.3827 -0.0000
vn 0.3827 0.9239 -0.0000
vn 0.0000 1.0000 -0.0000
vn -0.3827 0.9239 -0.0000
vn 0.7071 0.7071 -0.0000
vn 0.9239 0.3827 -0.0000
vn 1.0000 -0.0000 -0.0000
vn 0.0000 -1.0000 -0.0000
vn 1.0000 0.0000 -0.0000
vn -1.0000 -0.0000 -0.0000
vn -0.0000 1.0000 -0.0000
# 22 vertex normals

vt 0.5757 0.9821 0.0000
vt 0.5723 0.9873 0.0000
vt 0.5602 0.9752 0.0000
vt 0.5654 0.9718 0.0000
vt 0.5537 0.9595 0.0000
vt 0.5598 0.9583 0.0000
vt 0.5537 0.9424 0.0000
vt 0.5598 0.9437 0.0000
vt 0.5602 0.9267 0.0000
vt 0.5654 0.9302 0.0000
vt 0.5723 0.9147 0.0000
vt 0.5757 0.9198 0.0000
vt 0.5892 0.9143 0.0000
vt 0.5880 0.9081 0.0000
vt 0.2980 0.7999 0.0000
vt 0.2929 0.7999 0.0000
vt 0.2929 0.0034 0.0000
vt 0.2979 0.0034 0.0000
vt 0.3942 0.8879 0.0000
vt 0.3907 0.8931 0.0000
vt 0.3787 0.8810 0.0000
vt 0.3839 0.8776 0.0000
vt 0.3722 0.8653 0.0000
vt 0.3783 0.8641 0.0000
vt 0.3783 0.8495 0.0000
vt 0.3722 0.8482 0.0000
vt 0.2830 0.0034 0.0000
vt 0.2880 0.0034 0.0000
vt 0.2879 0.7999 0.0000
vt 0.2829 0.7999 0.0000
vt 0.2780 0.0034 0.0000
vt 0.2778 0.7999 0.0000
vt 0.2728 0.7999 0.0000
vt 0.2730 0.0034 0.0000
vt 0.2678 0.7999 0.0000
vt 0.2680 0.0034 0.0000
vt 0.3480 0.0034 0.0000
vt 0.3478 0.7999 0.0000
vt 0.3429 0.7999 0.0000
vt 0.3430 0.0034 0.0000
vt 0.3379 0.7999 0.0000
vt 0.3379 0.0034 0.0000
vt 0.3329 0.0034 0.0000
vt 0.3330 0.7999 0.0000
vt 0.6208 0.9873 0.0000
vt 0.6051 0.9938 0.0000
vt 0.6038 0.9877 0.0000
vt 0.6173 0.9821 0.0000
vt 0.6405 0.0034 0.0000
vt 0.6448 0.0034 0.0000
vt 0.6449 0.7999 0.0000
vt 0.6406 0.7999 0.0000
vt 0.4513 0.8325 0.0000
vt 0.4461 0.8360 0.0000
vt 0.4358 0.8256 0.0000
vt 0.4392 0.8205 0.0000
vt 0.4223 0.8201 0.0000
vt 0.4235 0.8139 0.0000
vt 0.4077 0.8201 0.0000
vt 0.4065 0.8139 0.0000
vt 0.3907 0.8205 0.0000
vt 0.3942 0.8256 0.0000
vt 0.5890 0.0034 0.0000
vt 0.5892 0.7999 0.0000
vt 0.5849 0.7999 0.0000
vt 0.5847 0.0034 0.0000
vt 0.6534 0.0034 0.0000
vt 0.6534 0.7999 0.0000
vt 0.6492 0.7999 0.0000
vt 0.6491 0.0034 0.0000
vt 0.5892 0.9877 0.0000
vt 0.5880 0.9938 0.0000
vt 0.5933 0.0034 0.0000
vt 0.5935 0.7999 0.0000
vt 0.5977 0.7999 0.0000
vt 0.5977 0.0034 0.0000
vt 0.6020 0.7999 0.0000
vt 0.6020 0.0034 0.0000
vt 0.6062 0.7999 0.0000
vt 0.6063 0.0034 0.0000
vt 0.6105 0.7999 0.0000
vt 0.6107 0.0034 0.0000
vt 0.6149 0.0034 0.0000
vt 0.6148 0.7999 0.0000
vt 0.6192 0.0034 0.0000
vt 0.6191 0.7999 0.0000
vt 0.6235 0.0034 0.0000
vt 0.6234 0.7999 0.0000
vt 0.6277 0.0034 0.0000
vt 0.6277 0.7999 0.0000
vt 0.6320 0.7999 0.0000
vt 0.6320 0.0034 0.0000
vt 0.6394 0.9595 0.0000
vt 0.6332 0.9583 0.0000
vt 0.6332 0.9437 0.0000
vt 0.6394 0.9425 0.0000
vt 0.6277 0.9302 0.0000
vt 0.6328 0.9267 0.0000
vt 0.6173 0.9198 0.0000
vt 0.6208 0.9147 0.0000
vt 0.6051 0.9081 0.0000
vt 0.6038 0.9143 0.0000
vt 0.3029 0.0034 0.0000
vt 0.3030 0.7999 0.0000
vt 0.4077 0.8935 0.0000
vt 0.4065 0.8996 0.0000
vt 0.4223 0.8935 0.0000
vt 0.4235 0.8996 0.0000
vt 0.4392 0.8931 0.0000
vt 0.4358 0.8879 0.0000
vt 0.4513 0.8810 0.0000
vt 0.4461 0.8776 0.0000
vt 0.4578 0.8653 0.0000
vt 0.4517 0.8641 0.0000
vt 0.4517 0.8495 0.0000
vt 0.4578 0.8482 0.0000
vt 0.3278 0.0034 0.0000
vt 0.3280 0.7999 0.0000
vt 0.6328 0.9752 0.0000
vt 0.6277 0.9718 0.0000
vt 0.6362 0.0034 0.0000
vt 0.6363 0.7999 0.0000
vt 0.3230 0.7999 0.0000
vt 0.3228 0.0034 0.0000
vt 0.3178 0.0034 0.0000
vt 0.3180 0.7999 0.0000
vt 0.3130 0.7999 0.0000
vt 0.3128 0.0034 0.0000
vt 0.3080 0.7999 0.0000
vt 0.3078 0.0034 0.0000
vt 0.3839 0.8360 0.0000
vt 0.3787 0.8325 0.0000
# 132 texture coords

g Mesh
usemtl default
f 1/1/1 2/2/1 3/3/1 4/4/1 
f 4/4/1 3/3/1 5/5/1 6/6/1 
f 6/6/1 5/5/1 7/7/1 8/8/1 
f 8/8/1 7/7/1 9/9/1 10/10/1 
f 10/10/1 9/9/1 11/11/1 12/12/1 
f 13/13/1 12/12/1 11/11/1 14/14/1 
f 14/15/2 11/16/3 15/17/3 16/18/2 
f 17/19/4 16/20/4 15/21/4 18/22/4 
f 18/22/4 15/21/4 19/23/4 20/24/4 
f 21/25/4 20/24/4 19/23/4 22/26/4 
f 22/27/5 19/28/6 9/29/6 7/30/5 
f 23/31/7 22/27/5 7/30/5 5/32/7 
f 23/31/7 5/32/7 3/33/8 24/34/8 
f 24/34/8 3/33/8 2/35/9 25/36/9 
f 25/37/9 2/38/9 26/39/10 27/40/10 
f 27/40/10 26/39/10 28/41/11 29/42/11 
f 30/43/12 29/42/11 28/41/11 31/44/12 
f 31/45/1 28/46/1 32/47/1 33/48/1 
f 33/49/3 32/50/2 34/51/2 35/52/3 
f 30/53/4 35/54/4 34/55/4 29/56/4 
f 29/56/4 34/55/4 36/57/4 27/58/4 
f 27/58/4 36/57/4 37/59/4 25/60/4 
f 24/61/4 25/60/4 37/59/4 38/62/4 
f 4/63/13 38/64/13 37/65/14 1/66/14 
f 1/67/14 37/68/14 36/69/15 39/70/15 
f 39/70/15 36/69/15 34/51/2 32/50/2 
f 39/71/1 32/47/1 28/46/1 26/72/1 
f 1/1/1 39/71/1 26/72/1 2/2/1 
f 38/64/13 4/63/13 6/73/16 40/74/16 
f 21/75/17 40/74/16 6/73/16 8/76/17 
f 20/77/18 21/75/17 8/76/17 10/78/18 
f 18/79/12 20/77/18 10/78/18 12/80/12 
f 17/81/11 18/79/12 12/80/12 13/82/11 
f 17/81/11 13/82/11 41/83/10 42/84/10 
f 42/84/10 41/83/10 43/85/19 44/86/19 
f 44/86/19 43/85/19 45/87/8 46/88/8 
f 46/88/8 45/87/8 47/89/7 48/90/7 
f 49/91/5 48/90/7 47/89/7 50/92/5 
f 51/93/1 50/94/1 47/95/1 52/96/1 
f 52/96/1 47/95/1 45/97/1 53/98/1 
f 53/98/1 45/97/1 43/99/1 54/100/1 
f 55/101/1 54/100/1 43/99/1 41/102/1 
f 14/14/1 55/101/1 41/102/1 13/13/1 
f 56/103/15 55/104/15 14/15/2 16/18/2 
f 42/105/4 56/106/4 16/20/4 17/19/4 
f 56/106/4 42/105/4 44/107/4 57/108/4 
f 58/109/4 57/108/4 44/107/4 46/110/4 
f 59/111/4 58/109/4 46/110/4 48/112/4 
f 60/113/4 59/111/4 48/112/4 49/114/4 
f 60/113/4 49/114/4 61/115/4 62/116/4 
f 62/116/4 61/115/4 35/54/4 30/53/4 
f 62/117/20 30/43/12 31/44/12 63/118/20 
f 63/119/1 31/45/1 33/48/1 64/120/1 
f 64/121/21 33/49/3 35/52/3 61/122/21 
f 50/92/5 64/121/21 61/122/21 49/91/5 
f 63/119/1 64/120/1 50/94/1 51/93/1 
f 63/118/20 51/123/17 60/124/17 62/117/20 
f 59/125/16 60/124/17 51/123/17 52/126/16 
f 59/125/16 52/126/16 53/127/13 58/128/13 
f 58/128/13 53/127/13 54/129/22 57/130/22 
f 57/130/22 54/129/22 55/104/15 56/103/15 
f 40/131/4 21/25/4 22/26/4 23/132/4 
f 38/62/4 40/131/4 23/132/4 24/61/4 
f 11/16/3 9/29/6 19/28/6 15/17/3 
# 64 polygons

