# 3ds Max Wavefront OBJ Exporter v0.97b - (c)2007 guruware
# File Created: 12.11.2016 11:41:30

mtllib pipeShort_4.mtl

#
# object Mesh
#

v  -0.5000 -0.0000 7.7650
v  -0.4619 -0.1913 7.7650
v  -0.3960 -0.1640 7.7650
v  -0.4286 -0.0000 7.7650
v  -0.3960 -0.1640 -7.7650
v  -0.4286 -0.0000 -7.7650
v  -0.5000 -0.0000 -7.7650
v  -0.4619 -0.1913 -7.7650
v  -0.3031 -0.3031 -7.7650
v  -0.3536 -0.3536 -7.7650
v  -0.1640 -0.3960 -7.7650
v  -0.1913 -0.4619 -7.7650
v  0.0000 -0.4286 -7.7650
v  0.0000 -0.5000 -7.7650
v  0.1913 -0.4619 -7.7650
v  0.1640 -0.3960 -7.7650
v  0.1640 -0.3960 7.7650
v  0.0000 -0.4286 7.7650
v  -0.1640 -0.3960 7.7650
v  -0.3031 -0.3031 7.7650
v  -0.3536 -0.3536 7.7650
v  -0.1913 -0.4619 7.7650
v  0.0000 -0.5000 7.7650
v  0.1913 -0.4619 7.7650
v  0.3536 -0.3536 -7.7650
v  0.3536 -0.3536 7.7650
v  0.4619 -0.1913 7.7650
v  0.4619 -0.1913 -7.7650
v  0.3031 -0.3031 -7.7650
v  0.3960 -0.1640 -7.7650
v  0.3031 -0.3031 7.7650
v  0.3960 -0.1640 7.7650
v  0.5000 -0.0000 7.7650
v  0.4286 -0.0000 7.7650
v  0.4619 0.1913 7.7650
v  0.3960 0.1640 7.7650
v  0.3031 0.3031 7.7650
v  0.3536 0.3536 7.7650
v  0.4619 0.1913 -7.7650
v  0.3536 0.3536 -7.7650
v  0.3031 0.3031 -7.7650
v  0.3960 0.1640 -7.7650
v  0.5000 -0.0000 -7.7650
v  0.4286 -0.0000 -7.7650
v  0.1640 0.3960 7.7650
v  0.1640 0.3960 -7.7650
v  0.0000 0.4286 7.7650
v  0.0000 0.4286 -7.7650
v  -0.1640 0.3960 7.7650
v  -0.1640 0.3960 -7.7650
v  -0.3031 0.3031 7.7650
v  -0.3031 0.3031 -7.7650
v  -0.3960 0.1640 -7.7650
v  -0.3960 0.1640 7.7650
v  -0.4619 0.1913 7.7650
v  -0.3536 0.3536 7.7650
v  -0.1913 0.4619 7.7650
v  0.0000 0.5000 7.7650
v  0.1913 0.4619 7.7650
v  0.1913 0.4619 -7.7650
v  0.0000 0.5000 -7.7650
v  -0.1913 0.4619 -7.7650
v  -0.3536 0.3536 -7.7650
v  -0.4619 0.1913 -7.7650
# 64 vertices

vn 0.0000 0.0000 1.0000
vn 1.0000 0.0000 -0.0000
vn 0.9239 0.3827 -0.0000
vn 0.0000 0.0000 -1.0000
vn -0.3827 0.9239 -0.0000
vn 0.0000 1.0000 -0.0000
vn 0.3827 0.9239 -0.0000
vn 0.7071 0.7071 -0.0000
vn -0.7071 -0.7071 -0.0000
vn -0.9239 -0.3827 -0.0000
vn -0.3827 -0.9239 -0.0000
vn 0.0000 -1.0000 -0.0000
vn -0.0000 -1.0000 -0.0000
vn 0.3827 -0.9239 -0.0000
vn 0.7071 -0.7071 -0.0000
vn 0.9239 -0.3827 -0.0000
vn -0.9239 0.3827 -0.0000
vn -0.7071 0.7071 -0.0000
vn 1.0000 -0.0000 -0.0000
vn -1.0000 0.0000 -0.0000
vn -1.0000 -0.0000 -0.0000
vn -0.0000 1.0000 -0.0000
# 22 vertex normals

vt 0.7133 0.8948 0.0000
vt 0.6976 0.9013 0.0000
vt 0.6963 0.8952 0.0000
vt 0.7098 0.8896 0.0000
vt 0.9769 0.0034 0.0000
vt 0.9812 0.0034 0.0000
vt 0.9812 0.4016 0.0000
vt 0.9769 0.4016 0.0000
vt 0.1820 0.8476 0.0000
vt 0.1759 0.8488 0.0000
vt 0.1703 0.8353 0.0000
vt 0.1755 0.8318 0.0000
vt 0.1600 0.8250 0.0000
vt 0.1635 0.8198 0.0000
vt 0.1465 0.8194 0.0000
vt 0.1477 0.8133 0.0000
vt 0.1319 0.8194 0.0000
vt 0.1307 0.8133 0.0000
vt 0.1150 0.8198 0.0000
vt 0.1184 0.8250 0.0000
vt 0.9297 0.0034 0.0000
vt 0.9298 0.4016 0.0000
vt 0.9255 0.4016 0.0000
vt 0.9254 0.0034 0.0000
vt 0.9940 0.0034 0.0000
vt 0.9940 0.4016 0.0000
vt 0.9897 0.4016 0.0000
vt 0.9897 0.0034 0.0000
vt 0.9855 0.4016 0.0000
vt 0.9854 0.0034 0.0000
vt 0.6817 0.8952 0.0000
vt 0.6805 0.9013 0.0000
vt 0.8474 0.0034 0.0000
vt 0.8524 0.0034 0.0000
vt 0.8523 0.4016 0.0000
vt 0.8473 0.4016 0.0000
vt 0.8423 0.4016 0.0000
vt 0.8424 0.0034 0.0000
vt 0.8373 0.4016 0.0000
vt 0.8374 0.0034 0.0000
vt 0.9175 0.0034 0.0000
vt 0.9173 0.4016 0.0000
vt 0.9123 0.4016 0.0000
vt 0.9124 0.0034 0.0000
vt 0.9073 0.4016 0.0000
vt 0.9074 0.0034 0.0000
vt 0.9024 0.0034 0.0000
vt 0.9024 0.4016 0.0000
vt 0.0964 0.8476 0.0000
vt 0.1029 0.8318 0.0000
vt 0.1081 0.8353 0.0000
vt 0.1025 0.8488 0.0000
vt 0.9383 0.4016 0.0000
vt 0.9340 0.4016 0.0000
vt 0.9340 0.0034 0.0000
vt 0.9383 0.0034 0.0000
vt 0.6527 0.8342 0.0000
vt 0.6579 0.8377 0.0000
vt 0.6523 0.8512 0.0000
vt 0.6462 0.8500 0.0000
vt 0.6523 0.8658 0.0000
vt 0.6462 0.8670 0.0000
vt 0.6579 0.8793 0.0000
vt 0.6527 0.8827 0.0000
vt 0.6648 0.8948 0.0000
vt 0.6682 0.8896 0.0000
vt 0.6648 0.8222 0.0000
vt 0.6682 0.8274 0.0000
vt 0.6805 0.8157 0.0000
vt 0.6817 0.8218 0.0000
vt 0.6963 0.8218 0.0000
vt 0.6975 0.8157 0.0000
vt 0.8873 0.0034 0.0000
vt 0.8923 0.0034 0.0000
vt 0.8924 0.4016 0.0000
vt 0.8874 0.4016 0.0000
vt 0.1184 0.8872 0.0000
vt 0.1150 0.8924 0.0000
vt 0.1029 0.8803 0.0000
vt 0.1081 0.8769 0.0000
vt 0.0964 0.8646 0.0000
vt 0.1025 0.8634 0.0000
vt 0.8974 0.4016 0.0000
vt 0.8974 0.0034 0.0000
vt 0.9426 0.4016 0.0000
vt 0.9426 0.0034 0.0000
vt 0.9469 0.4016 0.0000
vt 0.9469 0.0034 0.0000
vt 0.9512 0.4016 0.0000
vt 0.9512 0.0034 0.0000
vt 0.9555 0.0034 0.0000
vt 0.9554 0.4016 0.0000
vt 0.9598 0.0034 0.0000
vt 0.9597 0.4016 0.0000
vt 0.9640 0.0034 0.0000
vt 0.9640 0.4016 0.0000
vt 0.9683 0.0034 0.0000
vt 0.9683 0.4016 0.0000
vt 0.9726 0.4016 0.0000
vt 0.9726 0.0034 0.0000
vt 0.7253 0.8827 0.0000
vt 0.7201 0.8793 0.0000
vt 0.7257 0.8658 0.0000
vt 0.7318 0.8670 0.0000
vt 0.7257 0.8512 0.0000
vt 0.7318 0.8499 0.0000
vt 0.7201 0.8377 0.0000
vt 0.7253 0.8342 0.0000
vt 0.7133 0.8222 0.0000
vt 0.7098 0.8274 0.0000
vt 0.8824 0.4016 0.0000
vt 0.8823 0.0034 0.0000
vt 0.1319 0.8928 0.0000
vt 0.1307 0.8989 0.0000
vt 0.1465 0.8928 0.0000
vt 0.1477 0.8989 0.0000
vt 0.1635 0.8924 0.0000
vt 0.1600 0.8872 0.0000
vt 0.1755 0.8803 0.0000
vt 0.1703 0.8769 0.0000
vt 0.1820 0.8646 0.0000
vt 0.1759 0.8634 0.0000
vt 0.8624 0.4016 0.0000
vt 0.8574 0.4016 0.0000
vt 0.8574 0.0034 0.0000
vt 0.8623 0.0034 0.0000
vt 0.8674 0.4016 0.0000
vt 0.8673 0.0034 0.0000
vt 0.8723 0.0034 0.0000
vt 0.8724 0.4016 0.0000
vt 0.8773 0.0034 0.0000
vt 0.8774 0.4016 0.0000
# 132 texture coords

g Mesh
usemtl default
f 1/1/1 2/2/1 3/3/1 4/4/1 
f 4/5/2 3/6/3 5/7/3 6/8/2 
f 7/9/4 6/10/4 5/11/4 8/12/4 
f 8/12/4 5/11/4 9/13/4 10/14/4 
f 10/14/4 9/13/4 11/15/4 12/16/4 
f 12/16/4 11/15/4 13/17/4 14/18/4 
f 15/19/4 14/18/4 13/17/4 16/20/4 
f 17/21/5 16/22/5 13/23/6 18/24/6 
f 18/25/6 13/26/6 11/27/7 19/28/7 
f 19/28/7 11/27/7 9/29/8 20/30/8 
f 3/6/3 20/30/8 9/29/8 5/7/3 
f 20/31/1 3/3/1 2/2/1 21/32/1 
f 21/33/9 2/34/10 8/35/10 10/36/9 
f 21/33/9 10/36/9 12/37/11 22/38/11 
f 22/38/11 12/37/11 14/39/12 23/40/13 
f 23/41/13 14/42/12 15/43/14 24/44/14 
f 24/44/14 15/43/14 25/45/15 26/46/15 
f 27/47/16 26/46/15 25/45/15 28/48/16 
f 28/49/4 25/50/4 29/51/4 30/52/4 
f 30/53/17 29/54/18 31/55/18 32/56/17 
f 27/57/1 32/58/1 31/59/1 26/60/1 
f 26/60/1 31/59/1 17/61/1 24/62/1 
f 24/62/1 17/61/1 18/63/1 23/64/1 
f 22/65/1 23/64/1 18/63/1 19/66/1 
f 21/32/1 22/65/1 19/66/1 20/31/1 
f 16/22/5 17/21/5 31/55/18 29/54/18 
f 16/20/4 29/51/4 25/50/4 15/19/4 
f 32/58/1 27/57/1 33/67/1 34/68/1 
f 34/68/1 33/67/1 35/69/1 36/70/1 
f 37/71/1 36/70/1 35/69/1 38/72/1 
f 38/73/8 35/74/3 39/75/3 40/76/8 
f 41/77/4 40/78/4 39/79/4 42/80/4 
f 42/80/4 39/79/4 43/81/4 44/82/4 
f 30/52/4 44/82/4 43/81/4 28/49/4 
f 28/48/16 43/83/2 33/84/19 27/47/16 
f 35/74/3 33/84/19 43/83/2 39/75/3 
f 44/85/20 30/53/17 32/56/17 34/86/20 
f 42/87/10 44/85/20 34/86/20 36/88/10 
f 41/89/9 42/87/10 36/88/10 37/90/9 
f 41/89/9 37/90/9 45/91/11 46/92/11 
f 46/92/11 45/91/11 47/93/12 48/94/12 
f 48/94/12 47/93/12 49/95/14 50/96/14 
f 50/96/14 49/95/14 51/97/15 52/98/15 
f 53/99/16 52/98/15 51/97/15 54/100/16 
f 55/101/1 54/102/1 51/103/1 56/104/1 
f 56/104/1 51/103/1 49/105/1 57/106/1 
f 57/106/1 49/105/1 47/107/1 58/108/1 
f 59/109/1 58/108/1 47/107/1 45/110/1 
f 38/72/1 59/109/1 45/110/1 37/71/1 
f 60/111/7 59/112/7 38/73/8 40/76/8 
f 46/113/4 60/114/4 40/78/4 41/77/4 
f 60/114/4 46/113/4 48/115/4 61/116/4 
f 62/117/4 61/116/4 48/115/4 50/118/4 
f 63/119/4 62/117/4 50/118/4 52/120/4 
f 64/121/4 63/119/4 52/120/4 53/122/4 
f 64/121/4 53/122/4 6/10/4 7/9/4 
f 64/123/17 7/124/21 1/125/20 55/126/17 
f 54/102/1 55/101/1 1/1/1 4/4/1 
f 54/100/16 4/5/2 6/8/2 53/99/16 
f 63/127/18 64/123/17 55/126/17 56/128/18 
f 63/127/18 56/128/18 57/129/5 62/130/5 
f 62/130/5 57/129/5 58/131/6 61/132/22 
f 61/132/22 58/131/6 59/112/7 60/111/7 
f 2/34/10 1/125/20 7/124/21 8/35/10 
# 64 polygons

