# 3ds Max Wavefront OBJ Exporter v0.97b - (c)2007 guruware
# File Created: 12.11.2016 13:57:38

mtllib rope_s.mtl

#
# object Mesh
#

v  2.3800 0.1582 0.0000
v  0.4938 3.4133 0.0000
v  0.5118 3.4250 -0.0390
v  2.3996 0.1670 -0.0390
v  2.4389 0.1845 -0.0390
v  0.5477 3.4484 -0.0390
v  0.3142 3.6970 -0.0390
v  0.3406 3.7334 -0.0390
v  0.0000 3.7991 -0.0390
v  0.0000 3.8441 -0.0390
v  -0.3406 3.7334 -0.0390
v  -0.3142 3.6970 -0.0390
v  -0.3009 3.6788 0.0000
v  0.0000 3.7766 0.0000
v  0.3009 3.6788 0.0000
v  0.5118 3.4250 0.0390
v  0.3142 3.6970 0.0390
v  0.5477 3.4484 0.0390
v  0.3406 3.7334 0.0390
v  0.5657 3.4600 0.0000
v  0.3538 3.7516 0.0000
v  0.0000 3.8666 0.0000
v  -0.3538 3.7516 0.0000
v  -0.5657 3.4600 0.0000
v  -0.5477 3.4484 -0.0390
v  -0.5118 3.4250 -0.0390
v  -0.4938 3.4133 0.0000
v  -0.3142 3.6970 0.0390
v  -0.5118 3.4250 0.0390
v  -0.5477 3.4484 0.0390
v  -0.3406 3.7334 0.0390
v  0.0000 3.7991 0.0390
v  0.0000 3.8441 0.0390
v  -2.4389 0.1845 0.0390
v  -2.4586 0.1933 0.0000
v  -2.4389 0.1845 -0.0390
v  -2.3996 0.1670 -0.0390
v  -2.3800 0.1582 0.0000
v  -2.3996 0.1670 0.0390
v  -2.4504 0.1491 0.0390
v  -2.4072 0.1437 0.0390
v  -2.4034 0.0837 0.0390
v  -2.4444 0.0548 0.0390
v  -2.4720 0.1518 0.0000
v  -2.4649 0.0403 0.0000
v  -2.4504 0.1491 -0.0390
v  -2.4444 0.0548 -0.0390
v  -2.4034 0.0837 -0.0390
v  -2.4072 0.1437 -0.0390
v  -2.3856 0.1410 0.0000
v  -2.3828 0.0982 0.0000
v  -2.3778 0.0727 0.0390
v  -2.3711 0.0931 0.0000
v  -2.3401 0.0642 0.0390
v  -2.3377 0.0856 0.0000
v  2.3401 0.0642 0.0390
v  2.3377 0.0856 0.0000
v  2.3711 0.0931 0.0000
v  2.3778 0.0727 0.0390
v  2.3910 0.0318 0.0390
v  2.3448 0.0214 0.0390
v  -2.3448 0.0214 0.0390
v  -2.3910 0.0318 0.0390
v  -2.3977 0.0113 0.0000
v  -2.3910 0.0318 -0.0390
v  -2.3778 0.0727 -0.0390
v  -2.3401 0.0642 -0.0390
v  2.3401 0.0642 -0.0390
v  2.3778 0.0727 -0.0390
v  2.3828 0.0982 0.0000
v  2.4033 0.0837 -0.0390
v  2.4072 0.1437 -0.0390
v  2.3856 0.1410 0.0000
v  2.4033 0.0837 0.0390
v  2.4072 0.1437 0.0390
v  2.4504 0.1491 0.0390
v  2.4444 0.0548 0.0390
v  2.3977 0.0113 0.0000
v  2.4649 0.0403 0.0000
v  2.4444 0.0548 -0.0390
v  2.3910 0.0318 -0.0390
v  2.3472 -0.0000 0.0000
v  2.3448 0.0214 -0.0390
v  -2.3448 0.0214 -0.0390
v  -2.3472 -0.0000 0.0000
v  2.4504 0.1491 -0.0390
v  2.4586 0.1933 0.0000
v  2.4720 0.1518 0.0000
v  2.4389 0.1845 0.0390
v  2.3996 0.1670 0.0390
# 90 vertices

vn -0.9132 -0.4074 0.0000
vn -0.8382 -0.5453 0.0000
vn -0.4162 -0.2707 -0.8681
vn -0.4403 -0.1965 -0.8761
vn 0.4865 0.2171 -0.8463
vn 0.4369 0.2842 -0.8534
vn -0.2456 -0.3380 -0.9085
vn 0.3336 0.4592 -0.8233
vn -0.0000 -0.4178 -0.9085
vn 0.0000 0.5675 -0.8233
vn -0.3336 0.4592 -0.8233
vn 0.2456 -0.3380 -0.9085
vn 0.5878 -0.8090 0.0000
vn -0.0000 -1.0000 0.0000
vn -0.5878 -0.8090 0.0000
vn -0.4161 -0.2707 0.8681
vn -0.2456 -0.3380 0.9085
vn 0.4369 0.2842 0.8534
vn 0.3336 0.4591 0.8234
vn 0.8382 0.5453 0.0000
vn 0.5878 0.8090 0.0000
vn 0.0000 1.0000 0.0000
vn -0.5878 0.8090 0.0000
vn -0.8382 0.5453 0.0000
vn -0.4369 0.2842 -0.8534
vn 0.4162 -0.2707 -0.8681
vn 0.8382 -0.5453 0.0000
vn 0.2456 -0.3380 0.9085
vn 0.4161 -0.2707 0.8681
vn -0.4369 0.2842 0.8534
vn -0.3336 0.4591 0.8234
vn -0.0000 -0.4178 0.9085
vn 0.0000 0.5675 0.8233
vn -0.4865 0.2170 0.8463
vn -0.9132 0.4075 0.0000
vn -0.4865 0.2171 -0.8463
vn 0.4402 -0.1964 -0.8761
vn 0.9132 -0.4075 0.0000
vn 0.4402 -0.1964 0.8761
vn -0.5442 0.0685 0.8362
vn 0.4544 -0.0572 0.8890
vn 0.2703 0.1904 0.9437
vn -0.4798 -0.3380 0.8096
vn -0.9922 0.1248 0.0000
vn -0.8175 -0.5759 0.0000
vn -0.5442 0.0685 -0.8362
vn -0.4798 -0.3380 -0.8096
vn 0.2704 0.1904 -0.9437
vn 0.4544 -0.0572 -0.8890
vn 0.9922 -0.1249 0.0000
vn 0.8175 0.5759 -0.0000
vn 0.1500 0.4617 0.8743
vn 0.3090 0.9511 0.0000
vn 0.0530 0.4778 0.8769
vn 0.1103 0.9939 0.0000
vn -0.0530 0.4778 0.8769
vn -0.1102 0.9939 0.0000
vn -0.3091 0.9510 0.0000
vn -0.1500 0.4617 0.8743
vn 0.1638 -0.5042 0.8479
vn 0.0588 -0.5304 0.8457
vn -0.0588 -0.5304 0.8457
vn -0.1638 -0.5042 0.8479
vn -0.3090 -0.9511 0.0000
vn -0.1638 -0.5042 -0.8479
vn 0.1500 0.4617 -0.8743
vn 0.0530 0.4778 -0.8769
vn -0.0530 0.4778 -0.8769
vn -0.1500 0.4617 -0.8743
vn -0.8176 0.5758 0.0000
vn -0.2704 0.1904 -0.9437
vn -0.4544 -0.0572 -0.8890
vn -0.9922 -0.1248 0.0000
vn -0.2704 0.1904 0.9437
vn -0.4544 -0.0572 0.8890
vn 0.5442 0.0685 0.8361
vn 0.4798 -0.3380 0.8097
vn 0.3090 -0.9511 0.0000
vn 0.8176 -0.5759 0.0000
vn 0.4798 -0.3380 -0.8096
vn 0.1638 -0.5042 -0.8479
vn 0.1103 -0.9939 0.0000
vn 0.0588 -0.5305 -0.8457
vn -0.0588 -0.5305 -0.8457
vn -0.1103 -0.9939 0.0000
vn 0.5442 0.0685 -0.8361
vn 0.9132 0.4075 0.0000
vn 0.9922 0.1248 0.0000
vn 0.4865 0.2171 0.8463
vn -0.4403 -0.1965 0.8761
# 90 vertex normals

vt -0.0032 51.4509 0.0000
vt -0.0032 37.0633 0.0000
vt 0.1668 37.0591 0.0000
vt 0.1668 51.4595 0.0000
vt 0.3305 51.4769 0.0000
vt 0.3305 37.0507 0.0000
vt 0.1687 37.0378 0.0000
vt 0.1726 35.7674 0.0000
vt 0.3344 35.7113 0.0000
vt 0.1726 35.6507 0.0000
vt 0.1704 34.4024 0.0000
vt 0.3321 34.3412 0.0000
vt 0.3307 32.9710 0.0000
vt 0.1704 34.2805 0.0000
vt 0.1690 33.0321 0.0000
vt 0.0009 33.0586 0.0000
vt 0.0024 34.2544 0.0000
vt 0.0046 35.6248 0.0000
vt 0.0024 34.4290 0.0000
vt 0.0006 37.0331 0.0000
vt 0.0046 35.7931 0.0000
vt 0.9986 35.7937 0.0000
vt 1.0001 37.0337 0.0000
vt 0.8321 37.0381 0.0000
vt 0.8305 35.7676 0.0000
vt 0.6705 37.0507 0.0000
vt 0.6686 35.7112 0.0000
vt 0.5005 37.0593 0.0000
vt 0.5015 35.7136 0.0000
vt 0.5000 34.3411 0.0000
vt 0.4978 32.9685 0.0000
vt 0.4984 31.6358 0.0000
vt 0.3284 31.6315 0.0000
vt 0.1688 32.9147 0.0000
vt 0.1667 31.6442 0.0000
vt 0.0007 32.8887 0.0000
vt -0.0012 31.6487 0.0000
vt 0.9983 31.6490 0.0000
vt 0.9948 32.8890 0.0000
vt 0.8267 32.9148 0.0000
vt 0.8302 31.6443 0.0000
vt 0.6684 31.6315 0.0000
vt 0.6650 32.9709 0.0000
vt 0.8268 33.0314 0.0000
vt 0.8295 34.2797 0.0000
vt 0.6678 34.3410 0.0000
vt 0.8295 34.4018 0.0000
vt 0.8304 35.6502 0.0000
vt 0.9984 35.6238 0.0000
vt 0.9975 34.4280 0.0000
vt 0.9947 33.0573 0.0000
vt 0.9975 34.2531 0.0000
vt 0.6674 17.2405 0.0000
vt 0.4982 17.2639 0.0000
vt 0.3290 17.2405 0.0000
vt 0.1650 31.6231 0.0000
vt 0.1658 17.2578 0.0000
vt -0.0045 31.6189 0.0000
vt -0.0038 17.2664 0.0000
vt 1.0006 17.2664 0.0000
vt 1.0009 31.6189 0.0000
vt 0.8315 31.6231 0.0000
vt 0.8308 17.2577 0.0000
vt 0.8223 17.2140 0.0000
vt 0.6600 17.1011 0.0000
vt 0.8178 17.1248 0.0000
vt 0.8111 16.8409 0.0000
vt 0.8156 17.0601 0.0000
vt 0.6530 16.7405 0.0000
vt 0.4982 17.1130 0.0000
vt 0.4981 16.7369 0.0000
vt 0.3363 17.1011 0.0000
vt 0.3433 16.7405 0.0000
vt 0.1852 16.8409 0.0000
vt 0.1807 17.0601 0.0000
vt 0.1741 17.2142 0.0000
vt 0.1785 17.1249 0.0000
vt 0.0125 17.1980 0.0000
vt 0.0157 17.1319 0.0000
vt 0.9806 17.1315 0.0000
vt 0.9839 17.1976 0.0000
vt 0.9743 16.8854 0.0000
vt 0.9775 17.0418 0.0000
vt 0.9780 16.6050 0.0000
vt 0.8136 16.6449 0.0000
vt 0.8186 16.5433 0.0000
vt 0.9803 16.5585 0.0000
vt 0.9820 16.4949 0.0000
vt 0.8196 16.4996 0.0000
vt 0.8220 16.3587 0.0000
vt 0.9840 16.3700 0.0000
vt 0.9961 16.3102 0.0000
vt 0.8282 16.3192 0.0000
vt 0.8273 -1.3352 0.0000
vt 0.9948 -1.3263 0.0000
vt 0.9866 52.2261 0.0000
vt 0.9887 52.3516 0.0000
vt 0.8258 52.3629 0.0000
vt 0.8235 52.2214 0.0000
vt 0.6662 52.2075 0.0000
vt 0.6693 52.3847 0.0000
vt 0.6662 16.3371 0.0000
vt 0.6666 -1.3531 0.0000
vt 0.6631 16.5133 0.0000
vt 0.4982 16.5012 0.0000
vt 0.3333 16.5133 0.0000
vt 0.1777 16.5434 0.0000
vt 0.1828 16.6449 0.0000
vt 0.0183 16.6052 0.0000
vt 0.0160 16.5587 0.0000
vt 0.1745 16.3585 0.0000
vt 0.1767 16.4994 0.0000
vt 0.0143 16.4946 0.0000
vt 0.0124 16.3696 0.0000
vt 0.1694 -1.3353 0.0000
vt 0.1697 16.3191 0.0000
vt 0.0025 16.3102 0.0000
vt 0.0012 -1.3263 0.0000
vt 0.1752 52.3630 0.0000
vt 0.0124 52.3519 0.0000
vt 0.0143 52.2264 0.0000
vt 0.1774 52.2215 0.0000
vt 0.1785 52.1773 0.0000
vt 0.0161 52.1620 0.0000
vt 0.0183 52.1153 0.0000
vt 0.1836 52.0753 0.0000
vt 0.1815 51.6582 0.0000
vt 0.1861 51.8785 0.0000
vt 0.0221 51.8338 0.0000
vt 0.0188 51.6765 0.0000
vt 0.9822 51.6766 0.0000
vt 0.9789 51.8339 0.0000
vt 0.8149 51.8785 0.0000
vt 0.8195 51.6582 0.0000
vt 0.6631 51.6169 0.0000
vt 0.6561 51.9793 0.0000
vt 0.8174 52.0753 0.0000
vt 0.8224 52.1773 0.0000
vt 0.5005 52.2197 0.0000
vt 0.5005 51.9829 0.0000
vt 0.3449 51.9793 0.0000
vt 0.3348 52.2075 0.0000
vt 0.5005 52.4022 0.0000
vt 0.3318 52.3847 0.0000
vt 0.3303 16.3370 0.0000
vt 0.3317 -1.3532 0.0000
vt 0.4996 -1.3621 0.0000
vt 0.4978 16.3460 0.0000
vt 0.3379 51.6169 0.0000
vt 0.1794 51.5932 0.0000
vt 0.1747 51.5035 0.0000
vt 0.5005 51.4856 0.0000
vt 0.5005 51.6050 0.0000
vt 0.6705 51.4769 0.0000
vt 0.8262 51.5034 0.0000
vt 0.8217 51.5931 0.0000
vt 0.9886 51.5198 0.0000
vt 0.9853 51.5863 0.0000
vt 0.0158 51.5865 0.0000
vt 0.0124 51.5201 0.0000
vt 1.0042 37.0634 0.0000
vt 1.0042 51.4509 0.0000
vt 0.8342 51.4596 0.0000
vt 0.8342 37.0592 0.0000
vt 0.9826 52.1153 0.0000
vt 0.9849 52.1620 0.0000
vt 0.0188 17.0418 0.0000
vt 0.0220 16.8853 0.0000
# 168 texture coords

g Mesh
usemtl default
f 1/1/1 2/2/2 3/3/3 4/4/4 
f 5/5/5 4/4/4 3/3/3 6/6/6 
f 6/6/6 3/7/3 7/8/7 8/9/8 
f 8/9/8 7/10/7 9/11/9 10/12/10 
f 11/13/11 10/12/10 9/14/9 12/15/12 
f 13/16/13 12/15/12 9/14/9 14/17/14 
f 15/18/15 14/19/14 9/11/9 7/10/7 
f 2/20/2 15/21/15 7/8/7 3/7/3 
f 15/22/15 2/23/2 16/24/16 17/25/17 
f 17/25/17 16/24/16 18/26/18 19/27/19 
f 19/27/19 18/26/18 20/28/20 21/29/21 
f 21/29/21 20/28/20 6/6/6 8/9/8 
f 22/30/22 21/29/21 8/9/8 10/12/10 
f 22/30/22 10/12/10 11/13/11 23/31/23 
f 24/32/24 23/31/23 11/13/11 25/33/25 
f 25/33/25 11/13/11 12/34/12 26/35/26 
f 26/35/26 12/34/12 13/36/13 27/37/27 
f 27/38/27 13/39/13 28/40/28 29/41/29 
f 30/42/30 29/41/29 28/40/28 31/43/31 
f 31/43/31 28/44/28 32/45/32 33/46/33 
f 19/27/19 33/46/33 32/47/32 17/48/17 
f 15/49/15 17/48/17 32/47/32 14/50/14 
f 13/51/13 14/52/14 32/45/32 28/44/28 
f 22/30/22 33/46/33 19/27/19 21/29/21 
f 31/43/31 33/46/33 22/30/22 23/31/23 
f 30/42/30 31/43/31 23/31/23 24/32/24 
f 34/53/34 30/42/30 24/32/24 35/54/35 
f 35/54/35 24/32/24 25/33/25 36/55/36 
f 36/55/36 25/33/25 26/56/26 37/57/37 
f 37/57/37 26/56/26 27/58/27 38/59/38 
f 38/60/38 27/61/27 29/62/29 39/63/39 
f 34/53/34 39/63/39 29/62/29 30/42/30 
f 39/64/39 34/53/34 40/65/40 41/66/41 
f 42/67/42 41/68/41 40/65/40 43/69/43 
f 43/69/43 40/65/40 44/70/44 45/71/45 
f 45/71/45 44/70/44 46/72/46 47/73/47 
f 48/74/48 47/73/47 46/72/46 49/75/49 
f 37/76/37 49/77/49 46/72/46 36/55/36 
f 36/55/36 46/72/46 44/70/44 35/54/35 
f 35/54/35 44/70/44 40/65/40 34/53/34 
f 49/77/49 37/76/37 38/78/38 50/79/50 
f 50/80/50 38/81/38 39/64/39 41/66/41 
f 51/82/51 50/83/50 41/68/41 42/67/42 
f 51/84/51 42/85/42 52/86/52 53/87/53 
f 53/88/53 52/89/52 54/90/54 55/91/55 
f 55/92/55 54/93/54 56/94/56 57/95/57 
f 58/96/58 57/97/57 56/98/56 59/99/59 
f 60/100/60 59/99/59 56/98/56 61/101/61 
f 62/102/62 61/103/61 56/94/56 54/93/54 
f 63/104/63 62/102/62 54/90/54 52/89/52 
f 43/69/43 63/104/63 52/86/52 42/85/42 
f 64/105/64 63/104/63 43/69/43 45/71/45 
f 64/105/64 45/71/45 47/73/47 65/106/65 
f 66/107/66 65/106/65 47/73/47 48/108/48 
f 66/107/66 48/108/48 51/109/51 53/110/53 
f 67/111/67 66/112/66 53/113/53 55/114/55 
f 68/115/68 67/116/67 55/117/55 57/118/57 
f 68/119/68 57/120/57 58/121/58 69/122/69 
f 69/123/69 58/124/58 70/125/70 71/126/71 
f 72/127/72 71/128/71 70/129/70 73/130/73 
f 73/131/73 70/132/70 74/133/74 75/134/75 
f 76/135/76 75/134/75 74/133/74 77/136/77 
f 77/136/77 74/137/74 59/138/59 60/100/60 
f 77/136/77 60/100/60 78/139/78 79/140/79 
f 80/141/80 79/140/79 78/139/78 81/142/81 
f 81/142/81 78/139/78 82/143/82 83/144/83 
f 84/145/84 83/146/83 82/147/82 85/148/85 
f 62/102/62 85/148/85 82/147/82 61/103/61 
f 60/100/60 61/101/61 82/143/82 78/139/78 
f 85/148/85 62/102/62 63/104/63 64/105/64 
f 85/148/85 64/105/64 65/106/65 84/145/84 
f 67/111/67 84/145/84 65/106/65 66/112/66 
f 83/146/83 84/145/84 67/116/67 68/115/68 
f 81/142/81 83/144/83 68/119/68 69/122/69 
f 80/141/80 81/142/81 69/123/69 71/126/71 
f 86/149/86 80/141/80 71/128/71 72/127/72 
f 86/149/86 72/150/72 4/151/4 5/5/5 
f 86/149/86 5/5/5 87/152/87 88/153/88 
f 88/153/88 87/152/87 89/154/89 76/135/76 
f 76/135/76 89/154/89 90/155/90 75/156/75 
f 75/156/75 90/155/90 1/157/1 73/158/73 
f 73/159/73 1/160/1 4/151/4 72/150/72 
f 2/161/2 1/162/1 90/163/90 16/164/16 
f 16/164/16 90/163/90 89/154/89 18/26/18 
f 18/26/18 89/154/89 87/152/87 20/28/20 
f 20/28/20 87/152/87 5/5/5 6/6/6 
f 79/140/79 88/153/88 76/135/76 77/136/77 
f 88/153/88 79/140/79 80/141/80 86/149/86 
f 59/138/59 74/137/74 70/165/70 58/166/58 
f 50/167/50 51/168/51 48/74/48 49/75/49 
# 90 polygons

